<?xml version="1.0" standalone="no"?>
<!DOCTYPE svg PUBLIC "-//W3C//DTD SVG 1.1//EN" 
  "http://www.w3.org/Graphics/SVG/1.1/DTD/svg11.dtd">
<svg width="248.000mm" height="76.000mm" version="1.1"
     viewBox="0 0 248.000 76.000"
     xmlns="http://www.w3.org/2000/svg"  xmlns:xlink="http://www.w3.org/1999/xlink" 
     xmlns:fpd="http://www.schaeffer-ag.de">
  <desc>Created with the Front Panel Designer by the export of the file 'Power Supply Front Panel No Hole.fpd'.</desc>
  <defs>
    <pattern id="revside-fill" x="1" y="1" width="2.480" height="2.480" patternUnits="userSpaceOnUse">
      <line x1="0" y1="0" x2="2.480" y2="2.480" style="stroke-width:0.248; stroke:black; stroke-dasharray:none;" />
      <line x1="0" y1="2.480" x2="2.480" y2="0" style="stroke-width:0.248; stroke:black; stroke-dasharray:none;" />
    </pattern>
    <pattern id="revside-fill-silver" x="1" y="1" width="2.480" height="2.480" patternUnits="userSpaceOnUse">
      <line x1="0" y1="0" x2="2.480" y2="2.480" style="stroke-width:0.248; stroke:#e0e0e0; stroke-dasharray:none;" />
      <line x1="0" y1="2.480" x2="2.480" y2="0" style="stroke-width:0.248; stroke:#e0e0e0; stroke-dasharray:none;" />
    </pattern>
  </defs>
<g transform="scale(1,-1) translate( -0.000, -76.000)" 
   fill-rule="evenodd"
   style="stroke-linecap:round; stroke-linejoin:round; stroke-opacity:1.0; stroke-opacity:1.0;">
<path d="
M246.000 76.000
A2.000,2.000 0 0,0 248.000,74.000
L248.000 2.000
A2.000,2.000 0 0,0 246.000,0.000
L2.000 0.000
A2.000,2.000 0 0,0 0.000,2.000
L0.000 74.000
A2.000,2.000 0 0,0 2.000,76.000
L246.000 76.000
" 
fill="#c0c0c0" fill-opacity="1.000000" vector-effect="non-scaling-stroke" stroke="#000000" stroke-width="0.100mm" stroke-opacity="1.000000" fpd:visible="front back" />
<path d="
M8.551 71.943
L8.551 69.660
L8.701 69.660
L8.701 71.973
L8.491 72.093
L9.242 72.093
L10.293 69.750
L10.773 69.750
L11.794 72.063
L12.365 72.063
L12.365 69.720
L12.515 69.720
L12.515 72.123
L12.515 69.720
L12.665 69.720
L12.665 72.213
L11.674 72.213
L10.653 69.900
L10.413 69.900
L9.362 72.213
L8.401 72.213
L8.401 69.690
L8.250 69.600
L8.250 72.363
L9.482 72.363
L10.533 70.050
L11.584 72.363
L12.815 72.363
L12.815 69.600
L12.215 69.600
L12.215 71.943
L11.944 71.943
L10.893 69.600
L10.173 69.600
L9.121 71.943
L8.851 71.943
L8.851 69.600
L8.250 69.600
" 
fill="none" vector-effect="non-scaling-stroke" stroke="#000000" stroke-width="0.200mm" stroke-opacity="1.000000" fpd:visible="front" fpd:print_element="0" fpd:engraving_ral_9005="1" />
<path d="
M14.016 72.152
L14.016 69.719
L16.328 69.719
L16.328 69.869
L14.166 69.869
L14.166 72.242
L13.866 72.242
L13.866 69.689
L13.715 69.599
L16.478 69.599
L16.478 70.019
L14.316 70.019
L14.316 72.362
L13.715 72.362
L13.715 69.599
" 
fill="none" vector-effect="non-scaling-stroke" stroke="#000000" stroke-width="0.200mm" stroke-opacity="1.000000" fpd:visible="front" fpd:print_element="0" fpd:engraving_ral_9005="1" />
<path d="
M17.409 70.981
L19.000 70.981
L19.060 71.101
L17.378 71.101
L17.378 70.860
L19.060 70.860
L19.060 71.101
" 
fill="none" vector-effect="non-scaling-stroke" stroke="#000000" stroke-width="0.200mm" stroke-opacity="1.000000" fpd:visible="front" fpd:print_element="0" fpd:engraving_ral_9005="1" />
<path d="
M20.261 72.212
L20.261 69.659
L20.111 69.659
L20.111 72.302
L20.411 72.302
L20.411 69.659
L20.531 69.599
" 
fill="none" vector-effect="non-scaling-stroke" stroke="#000000" stroke-width="0.200mm" stroke-opacity="1.000000" fpd:visible="front" fpd:print_element="0" fpd:engraving_ral_9005="1" />
<path d="
M20.561 69.599
L20.561 72.362
L19.960 72.362
L19.960 69.599
L20.561 69.599
" 
fill="none" vector-effect="non-scaling-stroke" stroke="#000000" stroke-width="0.200mm" stroke-opacity="1.000000" fpd:visible="front" fpd:print_element="0" fpd:engraving_ral_9005="1" />
<path d="
M21.732 71.371
L21.732 69.659
L21.582 69.659
L21.582 71.371
L21.882 71.371
L21.882 69.659
L21.882 70.290
A2.867,2.867 0 0,0 22.092,71.071
A0.758,0.758 0 0,0 22.723,71.371
A6.681,6.681 0 0,0 23.564,71.371
A0.474,0.474 0 0,0 23.924,70.950
L23.924 69.689
L23.774 69.689
L23.774 70.950
A0.408,0.408 0 0,1 23.444,71.281
A4.141,4.141 0 0,1 22.663,71.281
A1.172,1.172 0 0,1 22.212,71.131
A1.384,1.384 0 0,0 22.723,71.221
A6.368,6.368 0 0,0 23.324,71.191
A0.343,0.343 0 0,0 23.624,70.860
L23.624 69.689
L23.504 69.599
L24.044 69.599
L24.044 70.981
A0.476,0.476 0 0,1 23.594,71.461
A10.177,10.177 0 0,1 22.633,71.461
A0.660,0.660 0 0,1 22.002,70.800
L22.002 71.461
L21.461 71.461
L21.461 69.599
L22.002 69.599
L22.002 70.740
A0.402,0.402 0 0,0 22.362,71.131
A3.552,3.552 0 0,0 23.143,71.131
A0.402,0.402 0 0,0 23.504,70.740
L23.504 69.599
" 
fill="none" vector-effect="non-scaling-stroke" stroke="#000000" stroke-width="0.200mm" stroke-opacity="1.000000" fpd:visible="front" fpd:print_element="0" fpd:engraving_ral_9005="1" />
<path d="
M25.215 69.869
A0.171,0.171 0 0,1 25.365,69.749
A13.126,13.126 0 0,1 27.017,69.719
A0.331,0.331 0 0,1 27.287,70.140
A0.317,0.317 0 0,1 27.017,70.500
A23.849,23.849 0 0,1 25.515,70.530
A0.436,0.436 0 0,0 25.215,70.860
A0.620,0.620 0 0,0 25.215,71.131
A0.305,0.305 0 0,0 25.515,71.371
A8.125,8.125 0 0,0 27.047,71.341
A0.255,0.255 0 0,0 27.197,71.161
L27.347 71.161
A0.231,0.231 0 0,1 27.137,71.401
A8.198,8.198 0 0,1 25.335,71.401
A0.270,0.270 0 0,1 25.095,71.161
A1.247,1.247 0 0,1 25.095,70.770
A0.305,0.305 0 0,1 25.395,70.500
L26.807 70.470
A0.345,0.345 0 0,0 26.807,69.779
A20.988,20.988 0 0,0 25.485,69.809
A0.126,0.126 0 0,0 25.365,69.929
L25.035 69.929
A0.298,0.298 0 0,1 25.305,69.689
A11.651,11.651 0 0,1 27.137,69.689
A0.288,0.288 0 0,1 27.407,69.989
A2.148,2.148 0 0,1 27.407,70.260
A0.244,0.244 0 0,1 27.197,70.530
A9.939,9.939 0 0,1 25.635,70.590
A0.393,0.393 0 0,0 25.575,71.341
A8.406,8.406 0 0,0 26.897,71.311
A0.190,0.190 0 0,0 27.047,71.131
L26.927 71.101
L27.467 71.101
A0.359,0.359 0 0,1 27.137,71.461
A14.794,14.794 0 0,1 25.275,71.461
A0.339,0.339 0 0,1 24.975,71.101
L24.975 70.770
A0.310,0.310 0 0,1 25.275,70.440
L26.686 70.440
A0.300,0.300 0 0,0 26.686,69.839
L25.725 69.839
A0.252,0.252 0 0,0 25.485,70.019
L24.944 70.019
L24.944 69.959
A0.327,0.327 0 0,1 25.245,69.629
A15.749,15.749 0 0,1 27.227,69.629
A0.327,0.327 0 0,1 27.527,69.959
L27.527 70.260
A0.327,0.327 0 0,1 27.227,70.590
L25.755 70.650
A0.316,0.316 0 0,0 25.755,71.281
L26.686 71.281
A0.252,0.252 0 0,0 26.927,71.101
" 
fill="none" vector-effect="non-scaling-stroke" stroke="#000000" stroke-width="0.200mm" stroke-opacity="1.000000" fpd:visible="front" fpd:print_element="0" fpd:engraving_ral_9005="1" />
<path d="
M29.088 71.851
L29.088 70.200
A0.371,0.371 0 0,1 29.328,69.809
A1.656,1.656 0 0,1 30.199,69.809
A0.476,0.476 0 0,1 30.470,70.230
L30.620 70.230
A0.530,0.530 0 0,0 30.139,69.689
A4.460,4.460 0 0,0 29.298,69.689
A0.432,0.432 0 0,0 28.938,70.110
L28.938 71.851
L29.208 71.851
L29.208 71.251
L28.518 71.251
L28.518 71.371
L30.470 71.371
L30.470 71.251
L29.208 71.251
L29.208 70.230
A0.366,0.366 0 0,1 29.509,69.869
A1.226,1.226 0 0,1 30.079,69.899
A0.409,0.409 0 0,1 30.320,70.230
L30.169 70.320
L30.710 70.320
L30.710 70.080
A0.483,0.483 0 0,0 30.259,69.599
A10.813,10.813 0 0,0 29.238,69.599
A0.476,0.476 0 0,0 28.788,70.080
L28.788 71.161
L28.427 71.161
L28.427 71.461
L28.788 71.461
L28.788 71.942
L29.328 71.942
L29.328 71.461
L30.590 71.461
L30.590 71.161
L29.328 71.161
L29.328 70.320
A0.355,0.355 0 0,1 29.629,69.959
A0.957,0.957 0 0,1 29.869,69.959
A0.355,0.355 0 0,1 30.169,70.320
" 
fill="none" vector-effect="non-scaling-stroke" stroke="#000000" stroke-width="0.200mm" stroke-opacity="1.000000" fpd:visible="front" fpd:print_element="0" fpd:engraving_ral_9005="1" />
<path d="
M31.881 71.400
L31.881 69.658
L31.731 69.658
L31.731 71.400
L32.031 71.400
L32.031 69.658
L32.031 70.289
L32.181 70.919
A0.393,0.393 0 0,0 32.451,71.190
A0.763,0.763 0 0,0 33.172,71.130
A0.517,0.517 0 0,0 33.382,70.799
L33.653 70.799
A0.517,0.517 0 0,1 33.623,71.070
A0.463,0.463 0 0,1 33.292,71.340
A2.890,2.890 0 0,1 32.842,71.400
A0.661,0.661 0 0,1 32.301,71.160
A1.247,1.247 0 0,0 32.662,71.310
A0.947,0.947 0 0,0 33.292,71.220
A0.496,0.496 0 0,0 33.503,70.799
L33.773 70.739
L33.773 70.980
A0.476,0.476 0 0,1 33.322,71.460
A5.724,5.724 0 0,1 32.782,71.460
A0.667,0.667 0 0,1 32.151,70.769
L32.151 71.460
L31.610 71.460
L31.610 69.598
L32.151 69.598
L32.151 70.739
A0.402,0.402 0 0,0 32.511,71.130
A1.640,1.640 0 0,0 32.872,71.130
A0.402,0.402 0 0,0 33.232,70.739
L33.773 70.739
" 
fill="none" vector-effect="non-scaling-stroke" stroke="#000000" stroke-width="0.200mm" stroke-opacity="1.000000" fpd:visible="front" fpd:print_element="0" fpd:engraving_ral_9005="1" />
<path d="
M37.016 71.339
L37.016 69.687
L37.136 69.687
L37.136 71.369
L36.866 71.369
L36.866 69.687
L36.866 70.648
A4.717,4.717 0 0,0 36.596,69.957
A0.726,0.726 0 0,0 35.935,69.657
A6.996,6.996 0 0,0 35.274,69.657
A0.462,0.462 0 0,0 34.794,70.078
L34.794 71.399
L34.944 71.399
L34.944 70.138
A0.411,0.411 0 0,1 35.334,69.747
A3.552,3.552 0 0,1 36.115,69.747
A0.515,0.515 0 0,1 36.475,69.897
A1.542,1.542 0 0,0 35.905,69.807
A7.645,7.645 0 0,0 35.424,69.837
A0.364,0.364 0 0,0 35.094,70.198
L35.094 71.399
L35.214 71.459
L34.673 71.459
L34.673 70.078
A0.476,0.476 0 0,1 35.124,69.597
A10.177,10.177 0 0,1 36.085,69.597
A0.667,0.667 0 0,1 36.716,70.288
L36.716 69.597
L37.256 69.597
L37.256 71.459
L36.716 71.459
L36.716 70.318
A0.402,0.402 0 0,0 36.355,69.927
A3.552,3.552 0 0,0 35.574,69.927
A0.402,0.402 0 0,0 35.214,70.318
L35.214 71.459
" 
fill="none" vector-effect="non-scaling-stroke" stroke="#000000" stroke-width="0.200mm" stroke-opacity="1.000000" fpd:visible="front" fpd:print_element="0" fpd:engraving_ral_9005="1" />
<path d="
M38.427 71.338
L38.427 69.656
L38.277 69.656
L38.277 71.368
L38.577 71.368
L38.577 69.656
L38.577 70.407
A2.763,2.763 0 0,0 38.787,71.068
A0.547,0.547 0 0,0 39.178,71.338
A2.246,2.246 0 0,0 40.019,71.368
A0.776,0.776 0 0,0 40.499,70.557
A2.200,2.200 0 0,0 40.709,71.068
A0.691,0.691 0 0,0 41.250,71.368
A3.985,3.985 0 0,0 42.001,71.338
A0.402,0.402 0 0,0 42.361,70.947
L42.361 69.656
L42.211 69.656
L42.211 70.887
A0.375,0.375 0 0,1 41.881,71.248
A2.872,2.872 0 0,1 41.160,71.248
A0.617,0.617 0 0,1 40.709,71.068
A1.359,1.359 0 0,0 41.850,71.128
A0.277,0.277 0 0,0 42.061,70.857
L42.061 69.656
L42.061 70.857
A0.277,0.277 0 0,1 41.850,71.128
A1.359,1.359 0 0,1 40.709,71.068
A2.200,2.200 0 0,1 40.499,70.557
L40.499 69.656
L40.349 69.656
L40.349 70.677
A0.625,0.625 0 0,1 39.958,71.278
A1.820,1.820 0 0,1 39.057,71.218
A0.332,0.332 0 0,1 38.847,71.098
A2.284,2.284 0 0,0 39.838,71.188
A0.477,0.477 0 0,0 40.199,70.707
L40.199 69.656
L40.049 69.596
L40.589 69.596
L40.589 70.737
A0.355,0.355 0 0,0 40.889,71.098
A2.992,2.992 0 0,0 41.640,71.098
A0.355,0.355 0 0,0 41.941,70.737
L41.941 69.596
L42.481 69.596
L42.481 70.978
A0.476,0.476 0 0,1 42.031,71.458
A8.905,8.905 0 0,1 41.190,71.458
A0.769,0.769 0 0,1 40.619,70.887
A0.807,0.807 0 0,1 40.079,71.458
A3.552,3.552 0 0,1 39.298,71.458
A0.675,0.675 0 0,1 38.697,70.857
L38.697 71.458
L38.156 71.458
L38.156 69.596
L38.697 69.596
L38.697 70.737
A0.355,0.355 0 0,0 38.997,71.098
A2.992,2.992 0 0,0 39.748,71.098
A0.355,0.355 0 0,0 40.049,70.737
L40.049 69.596
" 
fill="none" vector-effect="non-scaling-stroke" stroke="#000000" stroke-width="0.200mm" stroke-opacity="1.000000" fpd:visible="front" fpd:print_element="0" fpd:engraving_ral_9005="1" />
<path d="
M43.862 70.587
L45.484 70.587
L45.484 71.008
A0.403,0.403 0 0,1 45.213,71.278
A4.153,4.153 0 0,1 44.042,71.278
A0.330,0.330 0 0,1 43.742,70.917
L43.742 70.587
L43.862 70.677
L45.364 70.677
L45.364 70.917
A0.272,0.272 0 0,1 45.153,71.188
A2.482,2.482 0 0,1 44.072,71.188
A0.297,0.297 0 0,1 43.862,70.947
L43.862 70.677
L43.742 70.527
L43.742 70.077
A0.314,0.314 0 0,1 44.072,69.776
A11.449,11.449 0 0,1 45.153,69.776
A0.438,0.438 0 0,1 45.484,69.986
L45.784 69.986
A0.445,0.445 0 0,0 45.424,69.656
A9.550,9.550 0 0,0 43.922,69.656
A0.433,0.433 0 0,0 43.502,70.107
L43.502 70.978
A0.424,0.424 0 0,0 43.922,71.398
A10.125,10.125 0 0,0 45.514,71.368
A0.423,0.423 0 0,0 45.784,70.978
L45.784 70.557
L45.634 70.557
L45.634 71.038
A0.356,0.356 0 0,1 45.334,71.338
A6.422,6.422 0 0,1 43.922,71.338
A0.403,0.403 0 0,1 43.622,70.917
L43.622 70.077
A0.379,0.379 0 0,1 43.982,69.716
A10.738,10.738 0 0,1 45.334,69.716
A0.385,0.385 0 0,1 45.634,69.986
L45.394 70.046
L45.904 70.046
L45.904 70.016
A0.443,0.443 0 0,0 45.484,69.596
A17.809,17.809 0 0,0 43.802,69.596
A0.443,0.443 0 0,0 43.381,70.016
A10.813,10.813 0 0,0 43.381,71.038
A0.443,0.443 0 0,0 43.802,71.458
A10.696,10.696 0 0,0 45.484,71.458
A0.443,0.443 0 0,0 45.904,71.038
L45.904 70.497
L43.862 70.497
L43.862 70.167
A0.326,0.326 0 0,1 44.162,69.866
A7.397,7.397 0 0,1 45.093,69.866
A0.380,0.380 0 0,1 45.394,70.046
" 
fill="none" vector-effect="non-scaling-stroke" stroke="#000000" stroke-width="0.200mm" stroke-opacity="1.000000" fpd:visible="front" fpd:print_element="0" fpd:engraving_ral_9005="1" />
<path d="
M47.075 71.367
L47.075 69.655
L46.925 69.655
L46.925 71.367
L47.225 71.367
L47.225 69.655
L47.225 70.286
A2.867,2.867 0 0,0 47.435,71.067
A0.758,0.758 0 0,0 48.066,71.367
A6.681,6.681 0 0,0 48.907,71.367
A0.474,0.474 0 0,0 49.267,70.946
L49.267 69.685
L49.117 69.685
L49.117 70.946
A0.408,0.408 0 0,1 48.787,71.277
A4.141,4.141 0 0,1 48.006,71.277
A1.172,1.172 0 0,1 47.555,71.127
A1.384,1.384 0 0,0 48.066,71.217
A6.368,6.368 0 0,0 48.667,71.187
A0.343,0.343 0 0,0 48.967,70.856
L48.967 69.685
L48.847 69.595
L49.387 69.595
L49.387 70.977
A0.476,0.476 0 0,1 48.937,71.457
A10.177,10.177 0 0,1 47.976,71.457
A0.660,0.660 0 0,1 47.345,70.796
L47.345 71.457
L46.804 71.457
L46.804 69.595
L47.345 69.595
L47.345 70.736
A0.402,0.402 0 0,0 47.705,71.127
A3.552,3.552 0 0,0 48.486,71.127
A0.402,0.402 0 0,0 48.847,70.736
L48.847 69.595
" 
fill="none" vector-effect="non-scaling-stroke" stroke="#000000" stroke-width="0.200mm" stroke-opacity="1.000000" fpd:visible="front" fpd:print_element="0" fpd:engraving_ral_9005="1" />
<path d="
M50.948 71.847
L50.948 70.196
A0.371,0.371 0 0,1 51.188,69.805
A1.656,1.656 0 0,1 52.059,69.805
A0.476,0.476 0 0,1 52.330,70.226
L52.480 70.226
A0.530,0.530 0 0,0 51.999,69.685
A4.460,4.460 0 0,0 51.158,69.685
A0.432,0.432 0 0,0 50.798,70.106
L50.798 71.847
L51.068 71.847
L51.068 71.247
L50.378 71.247
L50.378 71.367
L52.330 71.367
L52.330 71.247
L51.068 71.247
L51.068 70.226
A0.366,0.366 0 0,1 51.369,69.865
A1.226,1.226 0 0,1 51.939,69.895
A0.409,0.409 0 0,1 52.180,70.226
L52.029 70.316
L52.570 70.316
L52.570 70.076
A0.483,0.483 0 0,0 52.119,69.595
A10.813,10.813 0 0,0 51.098,69.595
A0.476,0.476 0 0,0 50.648,70.076
L50.648 71.157
L50.287 71.157
L50.287 71.457
L50.648 71.457
L50.648 71.938
L51.188 71.938
L51.188 71.457
L52.450 71.457
L52.450 71.157
L51.188 71.157
L51.188 70.316
A0.355,0.355 0 0,1 51.489,69.955
A0.957,0.957 0 0,1 51.729,69.955
A0.355,0.355 0 0,1 52.029,70.316
" 
fill="none" vector-effect="non-scaling-stroke" stroke="#000000" stroke-width="0.200mm" stroke-opacity="1.000000" fpd:visible="front" fpd:print_element="0" fpd:engraving_ral_9005="1" />
<path d="
M53.741 69.864
A0.171,0.171 0 0,1 53.891,69.744
A13.126,13.126 0 0,1 55.543,69.714
A0.331,0.331 0 0,1 55.813,70.135
A0.317,0.317 0 0,1 55.543,70.495
A23.849,23.849 0 0,1 54.041,70.525
A0.436,0.436 0 0,0 53.741,70.855
A0.620,0.620 0 0,0 53.741,71.126
A0.305,0.305 0 0,0 54.041,71.366
A8.125,8.125 0 0,0 55.573,71.336
A0.255,0.255 0 0,0 55.723,71.156
L55.873 71.156
A0.231,0.231 0 0,1 55.663,71.396
A8.198,8.198 0 0,1 53.861,71.396
A0.270,0.270 0 0,1 53.621,71.156
A1.247,1.247 0 0,1 53.621,70.765
A0.305,0.305 0 0,1 53.921,70.495
L55.333 70.465
A0.345,0.345 0 0,0 55.333,69.774
A20.988,20.988 0 0,0 54.011,69.804
A0.126,0.126 0 0,0 53.891,69.924
L53.561 69.924
A0.298,0.298 0 0,1 53.831,69.684
A11.651,11.651 0 0,1 55.663,69.684
A0.288,0.288 0 0,1 55.933,69.984
A2.148,2.148 0 0,1 55.933,70.255
A0.244,0.244 0 0,1 55.723,70.525
A9.939,9.939 0 0,1 54.161,70.585
A0.393,0.393 0 0,0 54.101,71.336
A8.406,8.406 0 0,0 55.423,71.306
A0.190,0.190 0 0,0 55.573,71.126
L55.453 71.096
L55.993 71.096
A0.359,0.359 0 0,1 55.663,71.456
A14.794,14.794 0 0,1 53.801,71.456
A0.339,0.339 0 0,1 53.501,71.096
L53.501 70.765
A0.310,0.310 0 0,1 53.801,70.435
L55.212 70.435
A0.300,0.300 0 0,0 55.212,69.834
L54.251 69.834
A0.252,0.252 0 0,0 54.011,70.014
L53.470 70.014
L53.470 69.954
A0.327,0.327 0 0,1 53.771,69.624
A15.749,15.749 0 0,1 55.753,69.624
A0.327,0.327 0 0,1 56.053,69.954
L56.053 70.255
A0.327,0.327 0 0,1 55.753,70.585
L54.281 70.645
A0.316,0.316 0 0,0 54.281,71.276
L55.212 71.276
A0.252,0.252 0 0,0 55.453,71.096
" 
fill="none" vector-effect="non-scaling-stroke" stroke="#000000" stroke-width="0.200mm" stroke-opacity="1.000000" fpd:visible="front" fpd:print_element="0" fpd:engraving_ral_9005="1" />
<path d="
M64.701 71.943
L64.701 69.900
L67.044 69.900
A0.595,0.595 0 0,1 67.494,70.531
L67.494 71.432
A0.631,0.631 0 0,1 66.923,72.093
L64.671 72.093
L64.851 71.943
L66.833 71.943
A0.478,0.478 0 0,0 67.314,71.462
L67.314 70.501
A0.478,0.478 0 0,0 66.833,70.020
L64.851 70.020
L64.851 71.943
L64.551 72.093
L64.551 69.780
L66.983 69.780
A0.651,0.651 0 0,1 67.644,70.591
L67.644 71.462
A0.648,0.648 0 0,1 67.134,72.183
L64.401 72.183
L64.401 69.690
L67.284 69.690
A0.639,0.639 0 0,1 67.794,70.441
L67.794 71.672
A0.621,0.621 0 0,1 67.254,72.273
L64.371 72.273
L64.250 72.363
L67.344 72.363
A0.546,0.546 0 0,0 67.914,71.822
L67.914 70.141
A0.538,0.538 0 0,0 67.374,69.600
L64.250 69.600
L64.250 72.363
" 
fill="none" vector-effect="non-scaling-stroke" stroke="#000000" stroke-width="0.200mm" stroke-opacity="1.000000" fpd:visible="front" fpd:print_element="0" fpd:engraving_ral_9005="1" />
<path d="
M71.968 71.642
A0.468,0.468 0 0,1 71.487,72.033
A18.445,18.445 0 0,1 69.745,72.033
A0.452,0.452 0 0,1 69.295,71.552
A7.067,7.067 0 0,1 69.295,70.441
A0.545,0.545 0 0,1 69.806,69.900
A17.809,17.809 0 0,1 71.487,69.900
A0.442,0.442 0 0,1 71.908,70.201
L71.998 70.441
L72.148 70.441
L72.088 70.231
A0.669,0.669 0 0,0 71.668,69.780
L69.535 69.810
A0.550,0.550 0 0,0 69.145,70.321
L69.145 71.642
A0.557,0.557 0 0,0 69.565,72.123
A20.671,20.671 0 0,0 71.517,72.123
A0.538,0.538 0 0,0 72.118,71.702
L72.118 71.642
L72.268 71.642
L72.268 71.792
A0.615,0.615 0 0,1 71.668,72.213
A22.898,22.898 0 0,1 69.505,72.213
A0.523,0.523 0 0,1 69.055,71.702
A6.832,6.832 0 0,1 69.055,70.201
A0.458,0.458 0 0,1 69.445,69.750
A18.614,18.614 0 0,1 71.788,69.720
A0.655,0.655 0 0,1 72.268,70.441
L72.358 70.441
L72.358 70.111
A0.712,0.712 0 0,0 71.908,69.660
A16.617,16.617 0 0,0 69.295,69.660
A0.496,0.496 0 0,0 68.935,70.171
A10.314,10.314 0 0,0 68.935,71.792
A0.586,0.586 0 0,0 69.295,72.273
A20.523,20.523 0 0,0 71.878,72.303
A0.587,0.587 0 0,0 72.388,71.642
L72.478 71.552
L72.478 71.822
A0.538,0.538 0 0,1 71.998,72.363
A21.476,21.476 0 0,1 69.295,72.363
A0.538,0.538 0 0,1 68.814,71.822
L68.814 70.141
A0.538,0.538 0 0,1 69.295,69.600
A21.476,21.476 0 0,1 71.998,69.600
A0.538,0.538 0 0,1 72.478,70.141
L72.478 70.561
L71.878 70.561
L71.878 70.531
A0.490,0.490 0 0,0 71.427,70.050
A8.282,8.282 0 0,0 69.866,70.050
A0.490,0.490 0 0,0 69.415,70.531
L69.415 71.432
A0.490,0.490 0 0,0 69.866,71.913
A8.282,8.282 0 0,0 71.427,71.913
A0.429,0.429 0 0,0 71.878,71.552
L72.478 71.552
" 
fill="none" vector-effect="non-scaling-stroke" stroke="#000000" stroke-width="0.200mm" stroke-opacity="1.000000" fpd:visible="front" fpd:print_element="0" fpd:engraving_ral_9005="1" />
<path d="
M76.681 71.943
L76.681 70.771
L78.363 70.771
A0.478,0.478 0 0,1 78.843,71.252
L78.843 71.462
A0.478,0.478 0 0,1 78.363,71.943
L76.681 71.943
L76.531 72.063
L78.483 72.063
A0.522,0.522 0 0,0 78.994,71.462
L78.994 71.282
A0.556,0.556 0 0,0 78.423,70.651
L76.531 70.651
L76.531 72.063
L76.381 72.183
L78.663 72.183
A0.556,0.556 0 0,0 79.144,71.642
L79.144 71.132
A0.525,0.525 0 0,0 78.633,70.561
L76.381 70.561
L76.381 72.183
L76.231 72.273
L78.813 72.273
A0.530,0.530 0 0,0 79.294,71.732
L79.294 70.981
A0.519,0.519 0 0,0 78.723,70.471
L76.531 70.471
L76.531 69.690
L76.381 69.690
L76.381 70.471
L76.381 69.690
L76.231 69.690
L76.231 72.273
L76.080 72.363
L76.080 69.600
L76.681 69.600
L76.681 70.351
L78.904 70.351
A0.538,0.538 0 0,1 79.444,70.891
L79.444 71.822
A0.538,0.538 0 0,1 78.904,72.363
L76.080 72.363
" 
fill="none" vector-effect="non-scaling-stroke" stroke="#000000" stroke-width="0.200mm" stroke-opacity="1.000000" fpd:visible="front" fpd:print_element="0" fpd:engraving_ral_9005="1" />
<path d="
M80.735 70.740
A4.057,4.057 0 0,1 80.735,70.230
A0.454,0.454 0 0,1 81.215,69.869
A4.046,4.046 0 0,1 82.357,69.869
A0.454,0.454 0 0,1 82.717,70.350
A3.818,3.818 0 0,1 82.717,70.830
A0.380,0.380 0 0,1 82.447,71.161
A4.701,4.701 0 0,1 80.975,71.161
A0.414,0.414 0 0,1 80.735,70.740
L80.885 70.770
A2.186,2.186 0 0,1 80.885,70.290
A0.378,0.378 0 0,1 81.215,69.959
A4.646,4.646 0 0,1 82.237,69.959
A0.378,0.378 0 0,1 82.567,70.290
A2.186,2.186 0 0,1 82.567,70.770
A0.378,0.378 0 0,1 82.237,71.101
A4.646,4.646 0 0,1 81.215,71.101
A0.378,0.378 0 0,1 80.885,70.770
L80.615 70.800
A5.011,5.011 0 0,1 80.615,70.170
A0.486,0.486 0 0,1 81.125,69.779
A4.223,4.223 0 0,1 82.447,69.809
A0.387,0.387 0 0,1 82.837,70.140
A5.727,5.727 0 0,1 82.837,70.860
A0.449,0.449 0 0,1 82.357,71.281
A10.741,10.741 0 0,1 81.005,71.251
A0.386,0.386 0 0,1 80.615,70.800
L80.495 70.920
A6.443,6.443 0 0,1 80.495,70.110
A0.483,0.483 0 0,1 80.975,69.689
A6.702,6.702 0 0,1 82.657,69.719
A0.355,0.355 0 0,1 82.957,70.080
A7.636,7.636 0 0,1 82.957,71.041
A0.463,0.463 0 0,1 82.477,71.371
A12.408,12.408 0 0,1 80.915,71.371
A0.417,0.417 0 0,1 80.495,70.920
L80.375 71.041
A8.113,8.113 0 0,1 80.375,70.019
A0.449,0.449 0 0,1 80.795,69.599
A14.794,14.794 0 0,1 82.657,69.599
A0.449,0.449 0 0,1 83.077,70.019
A8.113,8.113 0 0,1 83.077,71.041
A0.449,0.449 0 0,1 82.657,71.461
A14.794,14.794 0 0,1 80.795,71.461
A0.449,0.449 0 0,1 80.375,71.041
" 
fill="none" vector-effect="non-scaling-stroke" stroke="#000000" stroke-width="0.200mm" stroke-opacity="1.000000" fpd:visible="front" fpd:print_element="0" fpd:engraving_ral_9005="1" />
<path d="
M84.158 71.371
L84.848 69.659
L85.509 69.659
L86.020 71.161
L86.170 71.161
L86.650 69.659
L87.311 69.659
L87.972 71.371
L87.822 71.371
L87.221 69.719
L86.770 69.719
L86.260 71.251
L85.900 71.251
L85.389 69.719
L84.939 69.719
L84.308 71.371
L84.428 71.371
L85.059 69.719
L85.269 69.719
L85.839 71.371
L86.320 71.371
L86.891 69.719
L87.131 69.719
L87.701 71.371
L87.611 71.461
L88.152 71.461
L87.401 69.599
L86.560 69.599
L86.080 71.041
L85.599 69.599
L84.758 69.599
L84.007 71.461
L84.548 71.461
L85.149 69.749
L85.749 71.461
L86.410 71.461
L87.011 69.749
L87.611 71.461
" 
fill="none" vector-effect="non-scaling-stroke" stroke="#000000" stroke-width="0.200mm" stroke-opacity="1.000000" fpd:visible="front" fpd:print_element="0" fpd:engraving_ral_9005="1" />
<path d="
M89.533 70.589
L91.155 70.589
L91.155 71.010
A0.403,0.403 0 0,1 90.884,71.280
A4.153,4.153 0 0,1 89.713,71.280
A0.330,0.330 0 0,1 89.413,70.919
L89.413 70.589
L89.533 70.679
L91.035 70.679
L91.035 70.919
A0.272,0.272 0 0,1 90.824,71.190
A2.482,2.482 0 0,1 89.743,71.190
A0.297,0.297 0 0,1 89.533,70.949
L89.533 70.679
L89.413 70.529
L89.413 70.079
A0.314,0.314 0 0,1 89.743,69.778
A11.449,11.449 0 0,1 90.824,69.778
A0.438,0.438 0 0,1 91.155,69.988
L91.455 69.988
A0.445,0.445 0 0,0 91.095,69.658
A9.550,9.550 0 0,0 89.593,69.658
A0.433,0.433 0 0,0 89.173,70.109
L89.173 70.980
A0.424,0.424 0 0,0 89.593,71.400
A10.125,10.125 0 0,0 91.185,71.370
A0.423,0.423 0 0,0 91.455,70.980
L91.455 70.559
L91.305 70.559
L91.305 71.040
A0.356,0.356 0 0,1 91.005,71.340
A6.422,6.422 0 0,1 89.593,71.340
A0.403,0.403 0 0,1 89.293,70.919
L89.293 70.079
A0.379,0.379 0 0,1 89.653,69.718
A10.738,10.738 0 0,1 91.005,69.718
A0.385,0.385 0 0,1 91.305,69.988
L91.065 70.048
L91.575 70.048
L91.575 70.018
A0.443,0.443 0 0,0 91.155,69.598
A17.809,17.809 0 0,0 89.473,69.598
A0.443,0.443 0 0,0 89.052,70.018
A10.813,10.813 0 0,0 89.052,71.040
A0.443,0.443 0 0,0 89.473,71.460
A10.696,10.696 0 0,0 91.155,71.460
A0.443,0.443 0 0,0 91.575,71.040
L91.575 70.499
L89.533 70.499
L89.533 70.169
A0.326,0.326 0 0,1 89.833,69.868
A7.397,7.397 0 0,1 90.764,69.868
A0.380,0.380 0 0,1 91.065,70.048
" 
fill="none" vector-effect="non-scaling-stroke" stroke="#000000" stroke-width="0.200mm" stroke-opacity="1.000000" fpd:visible="front" fpd:print_element="0" fpd:engraving_ral_9005="1" />
<path d="
M92.746 71.399
L92.746 69.657
L92.596 69.657
L92.596 71.399
L92.896 71.399
L92.896 69.657
L92.896 70.288
L93.046 70.918
A0.393,0.393 0 0,0 93.316,71.189
A0.763,0.763 0 0,0 94.037,71.129
A0.517,0.517 0 0,0 94.247,70.798
L94.518 70.798
A0.517,0.517 0 0,1 94.488,71.069
A0.463,0.463 0 0,1 94.157,71.339
A2.890,2.890 0 0,1 93.707,71.399
A0.661,0.661 0 0,1 93.166,71.159
A1.247,1.247 0 0,0 93.527,71.309
A0.947,0.947 0 0,0 94.157,71.219
A0.496,0.496 0 0,0 94.368,70.798
L94.638 70.738
L94.638 70.978
A0.476,0.476 0 0,1 94.187,71.459
A5.724,5.724 0 0,1 93.647,71.459
A0.667,0.667 0 0,1 93.016,70.768
L93.016 71.459
L92.475 71.459
L92.475 69.597
L93.016 69.597
L93.016 70.738
A0.402,0.402 0 0,0 93.376,71.129
A1.640,1.640 0 0,0 93.737,71.129
A0.402,0.402 0 0,0 94.097,70.738
L94.638 70.738
" 
fill="none" vector-effect="non-scaling-stroke" stroke="#000000" stroke-width="0.200mm" stroke-opacity="1.000000" fpd:visible="front" fpd:print_element="0" fpd:engraving_ral_9005="1" />
<path d="
M98.751 70.167
A0.333,0.333 0 0,1 99.051,69.896
A17.809,17.809 0 0,1 100.733,69.896
A0.367,0.367 0 0,1 101.064,70.077
A0.718,0.718 0 0,1 101.124,70.617
A0.352,0.352 0 0,1 100.733,70.857
L98.811 70.947
A0.455,0.455 0 0,0 98.391,71.428
L98.391 71.848
A0.476,0.476 0 0,0 98.721,72.239
A17.898,17.898 0 0,0 100.973,72.269
A0.506,0.506 0 0,0 101.454,71.788
L101.334 71.788
L101.274 71.909
A1.354,1.354 0 0,1 101.034,72.149
A17.419,17.419 0 0,1 98.841,72.149
A0.458,0.458 0 0,1 98.541,71.788
L98.541 71.398
A0.398,0.398 0 0,1 98.841,71.068
A21.011,21.011 0 0,1 100.823,70.978
A0.439,0.439 0 0,0 101.274,70.557
A3.341,3.341 0 0,0 101.274,70.137
A0.393,0.393 0 0,0 100.883,69.806
A20.353,20.353 0 0,0 98.961,69.806
A0.358,0.358 0 0,0 98.601,70.167
L98.421 70.167
L98.421 70.046
A0.455,0.455 0 0,1 98.781,69.716
A11.787,11.787 0 0,1 101.003,69.716
A0.398,0.398 0 0,1 101.424,70.107
A4.011,4.011 0 0,1 101.424,70.737
A0.459,0.459 0 0,1 101.034,71.038
L98.931 71.158
A0.327,0.327 0 0,0 98.721,71.458
L98.721 71.758
A0.362,0.362 0 0,0 98.961,72.029
A12.415,12.415 0 0,0 100.913,72.029
A0.496,0.496 0 0,0 101.154,71.758
L101.003 71.698
A0.394,0.394 0 0,1 100.643,71.939
L99.202 71.939
A0.361,0.361 0 0,1 99.202,71.218
L101.094 71.158
A0.538,0.538 0 0,0 101.604,70.617
L101.604 70.137
A0.538,0.538 0 0,0 101.124,69.596
A12.742,12.742 0 0,0 98.721,69.596
A0.538,0.538 0 0,0 98.240,70.137
L98.240 70.257
L98.841 70.257
A0.394,0.394 0 0,1 99.202,70.016
L100.643 70.016
A0.376,0.376 0 0,1 100.643,70.767
L98.751 70.827
A0.538,0.538 0 0,0 98.240,71.368
L98.240 71.818
A0.538,0.538 0 0,0 98.721,72.359
A12.742,12.742 0 0,0 101.124,72.359
A0.538,0.538 0 0,0 101.604,71.818
L101.604 71.698
L101.003 71.698
" 
fill="none" vector-effect="non-scaling-stroke" stroke="#000000" stroke-width="0.200mm" stroke-opacity="1.000000" fpd:visible="front" fpd:print_element="0" fpd:engraving_ral_9005="1" />
<path d="
M104.847 71.338
L104.847 69.686
L104.967 69.686
L104.967 71.368
L104.697 71.368
L104.697 69.686
L104.697 70.647
A4.717,4.717 0 0,0 104.427,69.956
A0.726,0.726 0 0,0 103.766,69.656
A6.996,6.996 0 0,0 103.105,69.656
A0.462,0.462 0 0,0 102.625,70.077
L102.625 71.398
L102.775 71.398
L102.775 70.137
A0.411,0.411 0 0,1 103.165,69.746
A3.552,3.552 0 0,1 103.946,69.746
A0.515,0.515 0 0,1 104.306,69.896
A1.542,1.542 0 0,0 103.736,69.806
A7.645,7.645 0 0,0 103.255,69.836
A0.364,0.364 0 0,0 102.925,70.197
L102.925 71.398
L103.045 71.458
L102.504 71.458
L102.504 70.077
A0.476,0.476 0 0,1 102.955,69.596
A10.177,10.177 0 0,1 103.916,69.596
A0.667,0.667 0 0,1 104.547,70.287
L104.547 69.596
L105.087 69.596
L105.087 71.458
L104.547 71.458
L104.547 70.317
A0.402,0.402 0 0,0 104.186,69.926
A3.552,3.552 0 0,0 103.405,69.926
A0.402,0.402 0 0,0 103.045,70.317
L103.045 71.458
" 
fill="none" vector-effect="non-scaling-stroke" stroke="#000000" stroke-width="0.200mm" stroke-opacity="1.000000" fpd:visible="front" fpd:print_element="0" fpd:engraving_ral_9005="1" />
<path d="
M106.258 71.367
L106.258 68.784
L106.108 68.784
L106.108 71.367
L106.408 71.367
L106.408 68.784
L106.408 70.226
A2.034,2.034 0 0,1 106.828,69.835
A0.580,0.580 0 0,1 107.189,69.685
A4.646,4.646 0 0,1 108.210,69.685
A0.507,0.507 0 0,1 108.630,70.166
A3.186,3.186 0 0,1 108.630,70.766
A0.577,0.577 0 0,1 108.180,71.367
A2.726,2.726 0 0,1 107.159,71.367
A1.204,1.204 0 0,1 106.678,71.157
A1.989,1.989 0 0,0 107.099,71.277
A2.595,2.595 0 0,0 108.150,71.247
A0.436,0.436 0 0,0 108.480,70.796
A4.393,4.393 0 0,0 108.480,70.106
A0.504,0.504 0 0,0 108.000,69.745
A2.422,2.422 0 0,0 106.949,69.835
A3.728,3.728 0 0,1 108.000,69.865
A0.333,0.333 0 0,1 108.330,70.196
A2.733,2.733 0 0,1 108.330,70.796
A0.399,0.399 0 0,1 107.940,71.187
A3.233,3.233 0 0,1 106.828,71.157
A0.398,0.398 0 0,1 106.528,70.766
A2.186,2.186 0 0,1 106.528,70.286
A0.378,0.378 0 0,1 106.858,69.955
A4.646,4.646 0 0,1 107.880,69.955
A0.378,0.378 0 0,1 108.210,70.286
A2.186,2.186 0 0,1 108.210,70.766
A0.378,0.378 0 0,1 107.880,71.097
A4.646,4.646 0 0,1 106.858,71.097
A0.378,0.378 0 0,1 106.528,70.766
L106.528 71.457
L105.987 71.457
L105.987 68.694
L106.528 68.694
L106.528 70.045
A1.070,1.070 0 0,1 107.129,69.595
A4.547,4.547 0 0,1 108.270,69.595
A0.524,0.524 0 0,1 108.720,70.045
A3.829,3.829 0 0,1 108.720,71.007
A0.524,0.524 0 0,1 108.270,71.457
A4.667,4.667 0 0,1 107.099,71.457
A0.667,0.667 0 0,1 106.528,70.766
" 
fill="none" vector-effect="non-scaling-stroke" stroke="#000000" stroke-width="0.200mm" stroke-opacity="1.000000" fpd:visible="front" fpd:print_element="0" fpd:engraving_ral_9005="1" />
<path d="
M109.921 71.367
L109.921 68.784
L109.771 68.784
L109.771 71.367
L110.071 71.367
L110.071 68.784
L110.071 70.226
A2.034,2.034 0 0,1 110.491,69.835
A0.580,0.580 0 0,1 110.852,69.685
A4.646,4.646 0 0,1 111.873,69.685
A0.507,0.507 0 0,1 112.293,70.166
A3.186,3.186 0 0,1 112.293,70.766
A0.577,0.577 0 0,1 111.843,71.367
A2.726,2.726 0 0,1 110.822,71.367
A1.204,1.204 0 0,1 110.341,71.157
A1.989,1.989 0 0,0 110.762,71.277
A2.595,2.595 0 0,0 111.813,71.247
A0.436,0.436 0 0,0 112.143,70.796
A4.393,4.393 0 0,0 112.143,70.106
A0.504,0.504 0 0,0 111.663,69.745
A2.422,2.422 0 0,0 110.612,69.835
A3.728,3.728 0 0,1 111.663,69.865
A0.333,0.333 0 0,1 111.993,70.196
A2.733,2.733 0 0,1 111.993,70.796
A0.399,0.399 0 0,1 111.603,71.187
A3.233,3.233 0 0,1 110.491,71.157
A0.398,0.398 0 0,1 110.191,70.766
A2.186,2.186 0 0,1 110.191,70.286
A0.378,0.378 0 0,1 110.521,69.955
A4.646,4.646 0 0,1 111.543,69.955
A0.378,0.378 0 0,1 111.873,70.286
A2.186,2.186 0 0,1 111.873,70.766
A0.378,0.378 0 0,1 111.543,71.097
A4.646,4.646 0 0,1 110.521,71.097
A0.378,0.378 0 0,1 110.191,70.766
L110.191 71.457
L109.650 71.457
L109.650 68.694
L110.191 68.694
L110.191 70.045
A1.070,1.070 0 0,1 110.792,69.595
A4.547,4.547 0 0,1 111.933,69.595
A0.524,0.524 0 0,1 112.383,70.045
A3.829,3.829 0 0,1 112.383,71.007
A0.524,0.524 0 0,1 111.933,71.457
A4.667,4.667 0 0,1 110.762,71.457
A0.667,0.667 0 0,1 110.191,70.766
" 
fill="none" vector-effect="non-scaling-stroke" stroke="#000000" stroke-width="0.200mm" stroke-opacity="1.000000" fpd:visible="front" fpd:print_element="0" fpd:engraving_ral_9005="1" />
<path d="
M113.584 72.268
L113.584 69.685
L113.434 69.685
L113.434 72.268
L113.734 72.268
L113.734 69.685
L113.854 69.595
L113.854 72.358
L113.313 72.358
L113.313 69.595
L113.854 69.595
" 
fill="none" vector-effect="non-scaling-stroke" stroke="#000000" stroke-width="0.200mm" stroke-opacity="1.000000" fpd:visible="front" fpd:print_element="0" fpd:engraving_ral_9005="1" />
<path d="
M115.115 71.307
L115.836 69.715
L115.956 69.715
L115.265 71.397
L114.905 71.397
L115.716 69.655
L116.166 69.655
L116.857 71.367
L117.037 71.367
L116.046 69.265
A0.644,0.644 0 0,0 115.475,68.874
L115.475 68.784
L115.655 68.784
A0.513,0.513 0 0,1 116.106,69.054
L117.187 71.397
L117.397 71.457
L116.226 69.024
A0.556,0.556 0 0,0 115.746,68.694
L115.385 68.694
L115.385 68.994
L115.505 68.994
A0.432,0.432 0 0,1 115.896,69.265
L116.016 69.595
L115.655 69.595
L114.754 71.457
L115.385 71.457
L116.076 69.715
L116.767 71.457
L117.397 71.457
" 
fill="none" vector-effect="non-scaling-stroke" stroke="#000000" stroke-width="0.200mm" stroke-opacity="1.000000" fpd:visible="front" fpd:print_element="0" fpd:engraving_ral_9005="1" />
<path d="
M168.340 29.983
A0.343,0.343 0 0,0 168.611,30.279
A12.939,12.939 0 0,0 170.240,30.279
A0.387,0.387 0 0,0 170.462,29.612
A0.646,0.646 0 0,0 170.067,29.390
A0.692,0.692 0 0,0 170.561,29.119
A0.469,0.469 0 0,0 170.215,28.379
A7.297,7.297 0 0,0 168.611,28.403
A0.353,0.353 0 0,0 168.340,28.774
L168.463 28.774
L168.216 28.774
A0.395,0.395 0 0,1 168.587,28.305
A19.073,19.073 0 0,1 170.388,28.305
A0.429,0.429 0 0,1 170.733,28.625
A0.662,0.662 0 0,1 170.758,28.872
A0.632,0.632 0 0,1 170.215,29.415
A0.668,0.668 0 0,1 170.684,29.958
A0.393,0.393 0 0,0 170.684,30.032
A0.359,0.359 0 0,1 170.314,30.353
A19.073,19.073 0 0,1 168.513,30.353
A0.361,0.361 0 0,1 168.216,29.933
L168.463 29.933
A0.332,0.332 0 0,0 168.809,30.205
L170.116 30.205
A0.362,0.362 0 0,0 170.462,29.933
A0.636,0.636 0 0,0 170.437,29.736
A0.766,0.766 0 0,0 170.018,29.366
L169.425 29.366
L170.018 29.366
A0.459,0.459 0 0,0 170.116,28.453
L168.858 28.453
A0.379,0.379 0 0,0 168.463,28.774
L168.587 28.872
L168.093 28.872
L168.093 28.650
A0.442,0.442 0 0,1 168.513,28.206
A20.380,20.380 0 0,1 170.437,28.206
A0.448,0.448 0 0,1 170.857,28.650
L170.857 28.922
A0.521,0.521 0 0,1 170.314,29.440
A0.635,0.635 0 0,1 170.807,29.933
L170.807 30.032
A0.442,0.442 0 0,1 170.388,30.476
A19.857,19.857 0 0,1 168.513,30.476
A0.442,0.442 0 0,1 168.093,30.032
L168.093 29.859
L168.587 29.859
A0.318,0.318 0 0,0 168.907,30.131
L170.018 30.131
A0.321,0.321 0 0,0 170.018,29.489
L169.327 29.489
L169.327 29.242
L170.042 29.242
A0.345,0.345 0 0,0 170.042,28.551
L168.907 28.551
A0.319,0.319 0 0,0 168.587,28.872
" 
fill="none" vector-effect="non-scaling-stroke" stroke="#000000" stroke-width="0.200mm" stroke-opacity="1.000000" fpd:visible="front" fpd:print_element="0" fpd:engraving_ral_9005="1" />
<path d="
M172.558 28.896
L173.175 30.130
L173.373 30.130
L173.989 28.896
L172.558 28.896
L172.410 28.896
L173.077 30.228
L173.447 30.228
L174.458 28.328
L174.606 28.328
L173.545 30.327
L173.003 30.327
L171.942 28.279
L172.114 28.304
L172.361 28.822
L174.138 28.822
L174.187 28.723
L172.386 28.723
L172.336 28.624
L174.212 28.624
L174.409 28.254
L174.779 28.254
L173.669 30.376
L172.879 30.376
L171.769 28.254
L171.596 28.205
L172.780 30.475
L173.767 30.475
L174.952 28.205
L174.335 28.205
L174.162 28.550
L172.386 28.550
L172.213 28.205
L171.596 28.205
" 
fill="none" vector-effect="non-scaling-stroke" stroke="#000000" stroke-width="0.200mm" stroke-opacity="1.000000" fpd:visible="front" fpd:print_element="0" fpd:engraving_ral_9005="1" />
<path d="
M12.001 30.043
L12.001 28.069
L12.075 28.069
L12.075 30.142
L11.310 30.142
L10.718 29.599
L10.792 29.500
L11.335 30.018
L11.902 30.018
L11.902 28.069
L11.803 28.069
L11.803 29.920
L11.705 29.920
L11.384 29.920
L10.767 29.352
L10.545 29.599
L11.261 30.265
L12.198 30.265
L12.198 27.995
L11.705 27.995
L11.705 29.920
" 
fill="none" vector-effect="non-scaling-stroke" stroke="#000000" stroke-width="0.200mm" stroke-opacity="1.000000" fpd:visible="front" fpd:print_element="0" fpd:engraving_ral_9005="1" />
<path d="
M13.283 29.549
A7.254,7.254 0 0,1 13.283,28.637
A0.455,0.455 0 0,1 13.629,28.291
A7.460,7.460 0 0,1 15.035,28.316
A0.456,0.456 0 0,1 15.306,28.637
L15.306 29.599
A0.403,0.403 0 0,1 14.986,29.944
A3.954,3.954 0 0,1 13.505,29.895
A0.374,0.374 0 0,1 13.283,29.549
L13.407 29.451
L13.407 28.785
A0.397,0.397 0 0,1 13.777,28.390
A5.496,5.496 0 0,1 14.813,28.390
A0.397,0.397 0 0,1 15.183,28.785
L15.183 29.475
A0.397,0.397 0 0,1 14.813,29.870
A5.496,5.496 0 0,1 13.777,29.870
A0.423,0.423 0 0,1 13.407,29.451
L13.160 29.574
A10.716,10.716 0 0,1 13.185,28.562
A0.409,0.409 0 0,1 13.579,28.192
A7.982,7.982 0 0,1 15.084,28.192
A0.429,0.429 0 0,1 15.405,28.538
L15.430 29.697
A0.373,0.373 0 0,1 15.109,30.018
A5.360,5.360 0 0,1 13.431,30.018
A0.421,0.421 0 0,1 13.160,29.574
L13.036 29.697
A19.202,19.202 0 0,1 13.061,28.488
A0.418,0.418 0 0,1 13.333,28.118
A7.570,7.570 0 0,1 15.232,28.118
A0.397,0.397 0 0,1 15.529,28.488
A13.589,13.589 0 0,1 15.553,29.772
A0.424,0.424 0 0,1 15.257,30.117
A5.138,5.138 0 0,1 13.333,30.117
A0.415,0.415 0 0,1 13.036,29.697
L12.913 29.796
L12.913 28.464
A0.442,0.442 0 0,1 13.308,28.020
A10.469,10.469 0 0,1 15.282,28.020
A0.442,0.442 0 0,1 15.677,28.464
L15.677 29.796
A0.442,0.442 0 0,1 15.282,30.240
A10.469,10.469 0 0,1 13.308,30.240
A0.442,0.442 0 0,1 12.913,29.796
" 
fill="none" vector-effect="non-scaling-stroke" stroke="#000000" stroke-width="0.200mm" stroke-opacity="1.000000" fpd:visible="front" fpd:print_element="0" fpd:engraving_ral_9005="1" />
<path d="
M17.378 28.685
L17.995 29.919
L18.193 29.919
L18.809 28.685
L17.378 28.685
L17.230 28.685
L17.897 30.017
L18.267 30.017
L19.278 28.117
L19.426 28.117
L18.365 30.116
L17.823 30.116
L16.762 28.068
L16.934 28.093
L17.181 28.611
L18.958 28.611
L19.007 28.512
L17.206 28.512
L17.156 28.413
L19.032 28.413
L19.229 28.043
L19.599 28.043
L18.489 30.165
L17.699 30.165
L16.589 28.043
L16.416 27.994
L17.600 30.264
L18.587 30.264
L19.772 27.994
L19.155 27.994
L18.982 28.339
L17.206 28.339
L17.033 27.994
L16.416 27.994
" 
fill="none" vector-effect="non-scaling-stroke" stroke="#000000" stroke-width="0.200mm" stroke-opacity="1.000000" fpd:visible="front" fpd:print_element="0" fpd:engraving_ral_9005="1" />
<path d="
M62.240 30.180
A47.790,47.790 0 0,1 60.735,30.180
A0.296,0.296 0 0,1 60.537,30.057
A0.475,0.475 0 0,1 60.735,29.440
L60.463 29.292
A0.448,0.448 0 0,1 60.216,28.946
L60.216 28.650
A0.424,0.424 0 0,1 60.513,28.305
A9.814,9.814 0 0,1 62.363,28.305
A0.384,0.384 0 0,1 62.733,28.675
L62.733 28.946
A0.484,0.484 0 0,1 62.585,29.267
A0.445,0.445 0 0,1 62.363,29.341
L60.735 29.341
L60.636 29.292
A0.414,0.414 0 0,1 60.340,28.946
L60.340 28.699
A0.354,0.354 0 0,1 60.661,28.379
A10.672,10.672 0 0,1 62.338,28.403
A0.359,0.359 0 0,1 62.610,28.724
L62.610 29.020
A0.461,0.461 0 0,1 62.412,29.242
A1.183,1.183 0 0,1 62.018,29.341
A1.908,1.908 0 0,1 62.388,29.538
A0.450,0.450 0 0,1 62.585,30.279
A0.400,0.400 0 0,1 62.338,30.353
A14.116,14.116 0 0,1 60.562,30.377
A0.347,0.347 0 0,1 60.315,30.205
A0.483,0.483 0 0,1 60.439,29.588
A1.023,1.023 0 0,1 60.883,29.415
L61.944 29.415
A0.739,0.739 0 0,1 62.289,29.538
A0.436,0.436 0 0,1 62.561,29.834
A0.487,0.487 0 0,1 62.561,30.032
A0.310,0.310 0 0,1 62.215,30.254
A16.724,16.724 0 0,1 60.636,30.279
A0.348,0.348 0 0,1 60.389,29.834
A1.383,1.383 0 0,1 60.809,29.292
A0.504,0.504 0 0,1 60.439,28.897
L60.439 28.774
A0.353,0.353 0 0,1 60.809,28.477
A44.656,44.656 0 0,1 62.215,28.477
A0.301,0.301 0 0,1 62.462,28.675
A0.871,0.871 0 0,1 62.486,28.946
A0.326,0.326 0 0,1 62.042,29.242
L60.907 29.242
A0.345,0.345 0 0,1 60.907,28.551
L62.042 28.551
A0.345,0.345 0 0,1 62.042,29.242
L62.388 29.662
A0.441,0.441 0 0,1 62.412,30.007
A0.207,0.207 0 0,1 62.289,30.131
L61.993 30.131
L60.907 30.131
A0.321,0.321 0 0,1 60.907,29.489
L61.993 29.489
A0.321,0.321 0 0,1 61.993,30.131
L62.388 30.476
A28.993,28.993 0 0,1 60.562,30.476
A0.430,0.430 0 0,1 60.142,30.032
L60.142 29.933
A0.620,0.620 0 0,1 60.611,29.440
A0.515,0.515 0 0,1 60.093,28.922
L60.093 28.650
A0.448,0.448 0 0,1 60.513,28.206
A20.380,20.380 0 0,1 62.437,28.206
A0.448,0.448 0 0,1 62.857,28.650
L62.857 28.922
A0.521,0.521 0 0,1 62.314,29.440
A0.622,0.622 0 0,1 62.807,29.933
L62.807 30.032
A0.430,0.430 0 0,1 62.388,30.476
" 
fill="none" vector-effect="non-scaling-stroke" stroke="#000000" stroke-width="0.200mm" stroke-opacity="1.000000" fpd:visible="front" fpd:print_element="0" fpd:engraving_ral_9005="1" />
<path d="
M64.558 28.897
L65.175 30.131
L65.373 30.131
L65.989 28.897
L64.558 28.897
L64.410 28.897
L65.077 30.229
L65.447 30.229
L66.458 28.329
L66.606 28.329
L65.545 30.328
L65.003 30.328
L63.942 28.280
L64.114 28.305
L64.361 28.823
L66.138 28.823
L66.187 28.724
L64.386 28.724
L64.336 28.625
L66.212 28.625
L66.409 28.255
L66.779 28.255
L65.669 30.377
L64.879 30.377
L63.769 28.255
L63.596 28.206
L64.780 30.476
L65.767 30.476
L66.952 28.206
L66.335 28.206
L66.162 28.551
L64.386 28.551
L64.213 28.206
L63.596 28.206
" 
fill="none" vector-effect="non-scaling-stroke" stroke="#000000" stroke-width="0.200mm" stroke-opacity="1.000000" fpd:visible="front" fpd:print_element="0" fpd:engraving_ral_9005="1" />
<path d="
M107.047 30.254
L107.047 28.280
L107.121 28.280
L107.121 30.353
L106.356 30.353
L105.764 29.810
L105.838 29.711
L106.381 30.229
L106.948 30.229
L106.948 28.280
L106.849 28.280
L106.849 30.131
L106.751 30.131
L106.430 30.131
L105.813 29.563
L105.591 29.810
L106.307 30.476
L107.244 30.476
L107.244 28.206
L106.751 28.206
L106.751 30.131
" 
fill="none" vector-effect="non-scaling-stroke" stroke="#000000" stroke-width="0.200mm" stroke-opacity="1.000000" fpd:visible="front" fpd:print_element="0" fpd:engraving_ral_9005="1" />
<path d="
M108.329 29.760
A7.254,7.254 0 0,1 108.329,28.848
A0.455,0.455 0 0,1 108.675,28.502
A7.460,7.460 0 0,1 110.081,28.527
A0.456,0.456 0 0,1 110.352,28.848
L110.352 29.810
A0.403,0.403 0 0,1 110.032,30.155
A3.954,3.954 0 0,1 108.551,30.106
A0.374,0.374 0 0,1 108.329,29.760
L108.453 29.662
L108.453 28.996
A0.397,0.397 0 0,1 108.823,28.601
A5.496,5.496 0 0,1 109.859,28.601
A0.397,0.397 0 0,1 110.229,28.996
L110.229 29.686
A0.397,0.397 0 0,1 109.859,30.081
A5.496,5.496 0 0,1 108.823,30.081
A0.423,0.423 0 0,1 108.453,29.662
L108.206 29.785
A10.716,10.716 0 0,1 108.231,28.774
A0.409,0.409 0 0,1 108.625,28.403
A7.982,7.982 0 0,1 110.130,28.403
A0.429,0.429 0 0,1 110.451,28.749
L110.476 29.909
A0.373,0.373 0 0,1 110.155,30.229
A5.360,5.360 0 0,1 108.477,30.229
A0.421,0.421 0 0,1 108.206,29.785
L108.082 29.909
A19.202,19.202 0 0,1 108.107,28.699
A0.418,0.418 0 0,1 108.379,28.329
A7.570,7.570 0 0,1 110.278,28.329
A0.397,0.397 0 0,1 110.575,28.699
A13.589,13.589 0 0,1 110.599,29.983
A0.424,0.424 0 0,1 110.303,30.328
A5.138,5.138 0 0,1 108.379,30.328
A0.415,0.415 0 0,1 108.082,29.909
L107.959 30.007
L107.959 28.675
A0.442,0.442 0 0,1 108.354,28.231
A10.469,10.469 0 0,1 110.328,28.231
A0.442,0.442 0 0,1 110.723,28.675
L110.723 30.007
A0.442,0.442 0 0,1 110.328,30.451
A10.469,10.469 0 0,1 108.354,30.451
A0.442,0.442 0 0,1 107.959,30.007
" 
fill="none" vector-effect="non-scaling-stroke" stroke="#000000" stroke-width="0.200mm" stroke-opacity="1.000000" fpd:visible="front" fpd:print_element="0" fpd:engraving_ral_9005="1" />
<path d="
M112.424 28.896
L113.041 30.130
L113.239 30.130
L113.855 28.896
L112.424 28.896
L112.276 28.896
L112.943 30.228
L113.313 30.228
L114.324 28.328
L114.472 28.328
L113.411 30.327
L112.869 30.327
L111.808 28.279
L111.980 28.304
L112.227 28.822
L114.004 28.822
L114.053 28.723
L112.252 28.723
L112.202 28.624
L114.078 28.624
L114.275 28.254
L114.645 28.254
L113.535 30.376
L112.745 30.376
L111.635 28.254
L111.462 28.205
L112.646 30.475
L113.633 30.475
L114.818 28.205
L114.201 28.205
L114.028 28.550
L112.252 28.550
L112.079 28.205
L111.462 28.205
" 
fill="none" vector-effect="non-scaling-stroke" stroke="#000000" stroke-width="0.200mm" stroke-opacity="1.000000" fpd:visible="front" fpd:print_element="0" fpd:engraving_ral_9005="1" />
<path d="
M25.437 5.269
A0.343,0.343 0 0,0 25.708,5.565
A12.939,12.939 0 0,0 27.337,5.565
A0.387,0.387 0 0,0 27.559,4.898
A0.646,0.646 0 0,0 27.164,4.676
A0.692,0.692 0 0,0 27.657,4.405
A0.469,0.469 0 0,0 27.312,3.665
A7.297,7.297 0 0,0 25.708,3.689
A0.353,0.353 0 0,0 25.437,4.059
L25.560 4.059
L25.313 4.059
A0.395,0.395 0 0,1 25.684,3.591
A19.073,19.073 0 0,1 27.485,3.591
A0.429,0.429 0 0,1 27.830,3.911
A0.662,0.662 0 0,1 27.855,4.158
A0.632,0.632 0 0,1 27.312,4.701
A0.668,0.668 0 0,1 27.781,5.244
A0.393,0.393 0 0,0 27.781,5.318
A0.359,0.359 0 0,1 27.411,5.639
A19.073,19.073 0 0,1 25.610,5.639
A0.361,0.361 0 0,1 25.313,5.219
L25.560 5.219
A0.332,0.332 0 0,0 25.906,5.491
L27.213 5.491
A0.362,0.362 0 0,0 27.559,5.219
A0.636,0.636 0 0,0 27.534,5.022
A0.766,0.766 0 0,0 27.115,4.652
L26.522 4.652
L27.115 4.652
A0.459,0.459 0 0,0 27.213,3.739
L25.955 3.739
A0.379,0.379 0 0,0 25.560,4.059
L25.684 4.158
L25.190 4.158
L25.190 3.936
A0.442,0.442 0 0,1 25.610,3.492
A20.380,20.380 0 0,1 27.534,3.492
A0.448,0.448 0 0,1 27.954,3.936
L27.954 4.208
A0.521,0.521 0 0,1 27.411,4.726
A0.635,0.635 0 0,1 27.904,5.219
L27.904 5.318
A0.442,0.442 0 0,1 27.485,5.762
A19.857,19.857 0 0,1 25.610,5.762
A0.442,0.442 0 0,1 25.190,5.318
L25.190 5.145
L25.684 5.145
A0.318,0.318 0 0,0 26.004,5.417
L27.115 5.417
A0.321,0.321 0 0,0 27.115,4.775
L26.424 4.775
L26.424 4.528
L27.139 4.528
A0.345,0.345 0 0,0 27.139,3.837
L26.004 3.837
A0.319,0.319 0 0,0 25.684,4.158
" 
fill="none" vector-effect="non-scaling-stroke" stroke="#000000" stroke-width="0.200mm" stroke-opacity="1.000000" fpd:visible="front" fpd:print_element="0" fpd:engraving_ral_9005="1" />
<path d="
M28.792 3.565
L29.137 3.565
L29.137 3.688
L28.792 3.688
L28.792 3.565
L28.693 3.491
L29.236 3.491
L29.236 3.787
L28.693 3.787
L28.693 3.491
" 
fill="none" vector-effect="non-scaling-stroke" stroke="#000000" stroke-width="0.200mm" stroke-opacity="1.000000" fpd:visible="front" fpd:print_element="0" fpd:engraving_ral_9005="1" />
<path d="
M30.223 5.268
A0.343,0.343 0 0,0 30.494,5.564
A12.939,12.939 0 0,0 32.123,5.564
A0.387,0.387 0 0,0 32.345,4.897
A0.646,0.646 0 0,0 31.950,4.675
A0.692,0.692 0 0,0 32.444,4.404
A0.469,0.469 0 0,0 32.098,3.664
A7.297,7.297 0 0,0 30.494,3.688
A0.353,0.353 0 0,0 30.223,4.059
L30.346 4.059
L30.099 4.059
A0.395,0.395 0 0,1 30.470,3.590
A19.073,19.073 0 0,1 32.271,3.590
A0.429,0.429 0 0,1 32.616,3.910
A0.662,0.662 0 0,1 32.641,4.157
A0.632,0.632 0 0,1 32.098,4.700
A0.668,0.668 0 0,1 32.567,5.243
A0.393,0.393 0 0,0 32.567,5.317
A0.359,0.359 0 0,1 32.197,5.638
A19.073,19.073 0 0,1 30.396,5.638
A0.361,0.361 0 0,1 30.099,5.218
L30.346 5.218
A0.332,0.332 0 0,0 30.692,5.490
L31.999 5.490
A0.362,0.362 0 0,0 32.345,5.218
A0.636,0.636 0 0,0 32.320,5.021
A0.766,0.766 0 0,0 31.901,4.651
L31.308 4.651
L31.901 4.651
A0.459,0.459 0 0,0 31.999,3.738
L30.741 3.738
A0.379,0.379 0 0,0 30.346,4.059
L30.470 4.157
L29.976 4.157
L29.976 3.935
A0.442,0.442 0 0,1 30.396,3.491
A20.380,20.380 0 0,1 32.320,3.491
A0.448,0.448 0 0,1 32.740,3.935
L32.740 4.207
A0.521,0.521 0 0,1 32.197,4.725
A0.635,0.635 0 0,1 32.690,5.218
L32.690 5.317
A0.442,0.442 0 0,1 32.271,5.761
A19.857,19.857 0 0,1 30.396,5.761
A0.442,0.442 0 0,1 29.976,5.317
L29.976 5.144
L30.470 5.144
A0.318,0.318 0 0,0 30.790,5.416
L31.901 5.416
A0.321,0.321 0 0,0 31.901,4.774
L31.210 4.774
L31.210 4.527
L31.925 4.527
A0.345,0.345 0 0,0 31.925,3.836
L30.790 3.836
A0.319,0.319 0 0,0 30.470,4.157
" 
fill="none" vector-effect="non-scaling-stroke" stroke="#000000" stroke-width="0.200mm" stroke-opacity="1.000000" fpd:visible="front" fpd:print_element="0" fpd:engraving_ral_9005="1" />
<path d="
M33.923 5.661
L34.910 3.737
L35.256 3.737
L36.243 5.686
L36.391 5.686
L35.354 3.638
L34.787 3.638
L33.775 5.686
L33.602 5.686
L34.688 3.564
L35.453 3.564
L36.539 5.661
L36.761 5.760
L35.576 3.490
L34.589 3.490
L33.405 5.760
L34.022 5.760
L34.984 3.835
L35.182 3.835
L36.144 5.760
L36.761 5.760
" 
fill="none" vector-effect="non-scaling-stroke" stroke="#000000" stroke-width="0.200mm" stroke-opacity="1.000000" fpd:visible="front" fpd:print_element="0" fpd:engraving_ral_9005="1" />
<path d="
M74.935 3.985
A0.379,0.379 0 0,1 75.330,3.665
A13.848,13.848 0 0,1 76.637,3.665
A0.363,0.363 0 0,1 76.958,4.059
L76.958 4.356
A0.326,0.326 0 0,1 76.588,4.726
L75.404 4.726
A0.604,0.604 0 0,1 75.182,4.553
L74.935 4.553
L74.935 5.589
L74.811 5.639
L74.811 4.528
L75.083 4.528
L75.182 4.528
A0.583,0.583 0 0,0 75.404,4.652
L76.465 4.652
A0.354,0.354 0 0,0 76.859,4.257
L76.859 4.158
A0.406,0.406 0 0,0 76.539,3.739
L75.502 3.739
A0.418,0.418 0 0,0 75.058,3.985
L74.811 3.985
A0.388,0.388 0 0,1 75.206,3.591
A9.572,9.572 0 0,1 76.711,3.591
A0.383,0.383 0 0,1 77.081,4.010
L77.081 4.479
A0.369,0.369 0 0,1 76.736,4.824
L75.700 4.824
A0.578,0.578 0 0,1 75.256,4.627
L75.157 4.504
L75.058 4.504
L75.058 5.540
L77.007 5.540
L77.007 5.639
L74.811 5.639
L74.688 5.762
L74.688 4.479
L75.157 4.479
A0.244,0.244 0 0,0 75.330,4.578
L76.415 4.578
A0.319,0.319 0 0,0 76.736,4.257
L76.736 4.158
A0.319,0.319 0 0,0 76.415,3.837
L75.502 3.837
A0.340,0.340 0 0,0 75.182,4.060
L74.688 4.060
L74.688 3.936
A0.442,0.442 0 0,1 75.108,3.492
A17.767,17.767 0 0,1 76.785,3.492
A0.442,0.442 0 0,1 77.205,3.936
L77.205 4.479
A0.442,0.442 0 0,1 76.761,4.923
L75.700 4.923
A0.567,0.567 0 0,1 75.182,4.578
L75.182 5.417
L77.131 5.417
L77.131 5.762
L74.688 5.762
" 
fill="none" vector-effect="non-scaling-stroke" stroke="#000000" stroke-width="0.200mm" stroke-opacity="1.000000" fpd:visible="front" fpd:print_element="0" fpd:engraving_ral_9005="1" />
<path d="
M78.388 5.663
L79.375 3.739
L79.721 3.739
L80.708 5.688
L80.856 5.688
L79.819 3.640
L79.252 3.640
L78.240 5.688
L78.067 5.688
L79.153 3.566
L79.918 3.566
L81.004 5.663
L81.226 5.762
L80.041 3.492
L79.054 3.492
L77.870 5.762
L78.487 5.762
L79.449 3.837
L79.647 3.837
L80.609 5.762
L81.226 5.762
" 
fill="none" vector-effect="non-scaling-stroke" stroke="#000000" stroke-width="0.200mm" stroke-opacity="1.000000" fpd:visible="front" fpd:print_element="0" fpd:engraving_ral_9005="1" />
<path d="
M122.144 5.540
L122.144 3.566
L122.218 3.566
L122.218 5.639
L121.453 5.639
L120.861 5.096
L120.935 4.997
L121.478 5.515
L122.045 5.515
L122.045 3.566
L121.946 3.566
L121.946 5.417
L121.848 5.417
L121.527 5.417
L120.910 4.849
L120.688 5.096
L121.404 5.762
L122.341 5.762
L122.341 3.492
L121.848 3.492
L121.848 5.417
" 
fill="none" vector-effect="non-scaling-stroke" stroke="#000000" stroke-width="0.200mm" stroke-opacity="1.000000" fpd:visible="front" fpd:print_element="0" fpd:engraving_ral_9005="1" />
<path d="
M123.303 5.293
A0.379,0.379 0 0,0 123.698,5.589
L125.227 5.589
A0.377,0.377 0 0,0 125.573,5.170
L125.573 4.874
A0.341,0.341 0 0,0 125.277,4.553
L123.500 4.405
A0.347,0.347 0 0,1 123.303,4.059
L123.303 3.640
L125.672 3.640
L125.672 3.739
L123.402 3.739
L123.402 4.035
A0.351,0.351 0 0,0 123.648,4.331
L125.425 4.479
A0.368,0.368 0 0,1 125.696,4.824
L125.696 5.293
A0.397,0.397 0 0,1 125.400,5.663
A7.570,7.570 0 0,1 123.500,5.663
A0.385,0.385 0 0,1 123.179,5.219
L123.426 5.219
A0.317,0.317 0 0,0 123.821,5.491
L125.129 5.491
A0.320,0.320 0 0,0 125.449,5.120
L125.449 4.997
A0.329,0.329 0 0,0 125.153,4.627
L123.451 4.479
A0.337,0.337 0 0,1 123.179,4.134
L123.179 3.566
L125.721 3.566
L125.820 3.492
L125.820 3.837
L123.500 3.837
A0.332,0.332 0 0,0 123.796,4.257
L125.449 4.380
A0.404,0.404 0 0,1 125.820,4.800
L125.820 5.318
A0.442,0.442 0 0,1 125.425,5.762
A12.554,12.554 0 0,1 123.451,5.762
A0.442,0.442 0 0,1 123.056,5.318
L123.056 5.145
L123.550 5.145
A0.283,0.283 0 0,0 123.846,5.417
L125.030 5.417
A0.295,0.295 0 0,0 125.326,5.120
L125.326 4.997
A0.330,0.330 0 0,0 125.030,4.676
L123.451 4.553
A0.424,0.424 0 0,1 123.056,4.109
L123.056 3.492
L125.820 3.492
" 
fill="none" vector-effect="non-scaling-stroke" stroke="#000000" stroke-width="0.200mm" stroke-opacity="1.000000" fpd:visible="front" fpd:print_element="0" fpd:engraving_ral_9005="1" />
<path d="
M127.003 5.663
L127.990 3.739
L128.336 3.739
L129.323 5.688
L129.471 5.688
L128.434 3.640
L127.867 3.640
L126.855 5.688
L126.682 5.688
L127.768 3.566
L128.533 3.566
L129.619 5.663
L129.841 5.762
L128.656 3.492
L127.669 3.492
L126.485 5.762
L127.102 5.762
L128.064 3.837
L128.262 3.837
L129.224 5.762
L129.841 5.762
" 
fill="none" vector-effect="non-scaling-stroke" stroke="#000000" stroke-width="0.200mm" stroke-opacity="1.000000" fpd:visible="front" fpd:print_element="0" fpd:engraving_ral_9005="1" />
<path d="
M233.802 63.146
L235.003 60.803
L235.424 60.803
L236.625 63.176
L236.805 63.176
L235.544 60.683
L234.853 60.683
L233.622 63.176
L233.412 63.176
L234.733 60.593
L235.664 60.593
L236.986 63.146
L237.256 63.266
L235.814 60.503
L234.613 60.503
L233.171 63.266
L233.922 63.266
L235.093 60.923
L235.334 60.923
L236.505 63.266
L237.256 63.266
" 
fill="none" vector-effect="non-scaling-stroke" stroke="#000000" stroke-width="0.200mm" stroke-opacity="1.000000" fpd:visible="front" fpd:print_element="0" fpd:engraving_ral_9005="1" />
<path d="
M234.343 43.344
L235.094 44.846
L235.334 44.846
L236.085 43.344
L234.343 43.344
L234.163 43.344
L234.973 44.966
L235.424 44.966
L236.655 42.653
L236.835 42.653
L235.544 45.086
L234.883 45.086
L233.592 42.593
L233.802 42.623
L234.102 43.254
L236.265 43.254
L236.325 43.134
L234.133 43.134
L234.072 43.014
L236.355 43.014
L236.595 42.563
L237.046 42.563
L235.694 45.146
L234.733 45.146
L233.382 42.563
L233.171 42.503
L234.613 45.266
L235.814 45.266
L237.256 42.503
L236.505 42.503
L236.295 42.923
L234.133 42.923
L233.922 42.503
L233.171 42.503
" 
fill="none" vector-effect="non-scaling-stroke" stroke="#000000" stroke-width="0.200mm" stroke-opacity="1.000000" fpd:visible="front" fpd:print_element="0" fpd:engraving_ral_9005="1" />
<path d="
M225.047 19.921
A0.243,0.243 0 0,1 225.267,19.723
A13.039,13.039 0 0,1 226.498,19.723
A0.269,0.269 0 0,1 226.740,19.855
A0.525,0.525 0 0,1 226.784,20.251
A0.258,0.258 0 0,1 226.498,20.427
L225.091 20.493
A0.333,0.333 0 0,0 224.783,20.844
L224.783 21.152
A0.349,0.349 0 0,0 225.025,21.438
A13.105,13.105 0 0,0 226.674,21.460
A0.370,0.370 0 0,0 227.026,21.108
L226.938 21.108
L226.894 21.196
A0.991,0.991 0 0,1 226.718,21.372
A12.754,12.754 0 0,1 225.113,21.372
A0.335,0.335 0 0,1 224.893,21.108
L224.893 20.822
A0.291,0.291 0 0,1 225.113,20.580
A15.384,15.384 0 0,1 226.564,20.514
A0.322,0.322 0 0,0 226.894,20.207
A2.446,2.446 0 0,0 226.894,19.899
A0.288,0.288 0 0,0 226.608,19.657
A14.902,14.902 0 0,0 225.201,19.657
A0.262,0.262 0 0,0 224.937,19.921
L224.805 19.921
L224.805 19.833
A0.333,0.333 0 0,1 225.069,19.591
A8.630,8.630 0 0,1 226.696,19.591
A0.292,0.292 0 0,1 227.004,19.877
A2.937,2.937 0 0,1 227.004,20.339
A0.336,0.336 0 0,1 226.718,20.558
L225.179 20.646
A0.239,0.239 0 0,0 225.025,20.866
L225.025 21.086
A0.265,0.265 0 0,0 225.201,21.284
A9.090,9.090 0 0,0 226.630,21.284
A0.363,0.363 0 0,0 226.806,21.086
L226.696 21.042
A0.289,0.289 0 0,1 226.432,21.218
L225.376 21.218
A0.264,0.264 0 0,1 225.376,20.690
L226.762 20.646
A0.394,0.394 0 0,0 227.136,20.251
L227.136 19.899
A0.394,0.394 0 0,0 226.784,19.503
A9.330,9.330 0 0,0 225.025,19.503
A0.394,0.394 0 0,0 224.673,19.899
L224.673 19.987
L225.113 19.987
A0.289,0.289 0 0,1 225.376,19.811
L226.432 19.811
A0.275,0.275 0 0,1 226.432,20.361
L225.047 20.405
A0.394,0.394 0 0,0 224.673,20.800
L224.673 21.130
A0.394,0.394 0 0,0 225.025,21.526
A9.330,9.330 0 0,0 226.784,21.526
A0.394,0.394 0 0,0 227.136,21.130
L227.136 21.042
L226.696 21.042
" 
fill="none" vector-effect="non-scaling-stroke" stroke="#000000" stroke-width="0.200mm" stroke-opacity="1.000000" fpd:visible="front" fpd:print_element="0" fpd:engraving_ral_9005="1" />
<path d="
M228.279 21.151
L228.279 19.942
A0.271,0.271 0 0,1 228.455,19.656
A1.212,1.212 0 0,1 229.092,19.656
A0.349,0.349 0 0,1 229.290,19.964
L229.400 19.964
A0.388,0.388 0 0,0 229.048,19.568
A3.265,3.265 0 0,0 228.433,19.568
A0.317,0.317 0 0,0 228.169,19.876
L228.169 21.151
L228.367 21.151
L228.367 20.711
L227.861 20.711
L227.861 20.799
L229.290 20.799
L229.290 20.711
L228.367 20.711
L228.367 19.964
A0.268,0.268 0 0,1 228.586,19.700
A0.898,0.898 0 0,1 229.004,19.722
A0.299,0.299 0 0,1 229.180,19.964
L229.070 20.030
L229.466 20.030
L229.466 19.854
A0.354,0.354 0 0,0 229.136,19.502
A7.917,7.917 0 0,0 228.389,19.502
A0.349,0.349 0 0,0 228.059,19.854
L228.059 20.645
L227.795 20.645
L227.795 20.865
L228.059 20.865
L228.059 21.217
L228.455 21.217
L228.455 20.865
L229.378 20.865
L229.378 20.645
L228.455 20.645
L228.455 20.030
A0.260,0.260 0 0,1 228.674,19.766
A0.701,0.701 0 0,1 228.850,19.766
A0.260,0.260 0 0,1 229.070,20.030
" 
fill="none" vector-effect="non-scaling-stroke" stroke="#000000" stroke-width="0.200mm" stroke-opacity="1.000000" fpd:visible="front" fpd:print_element="0" fpd:engraving_ral_9005="1" />
<path d="
M230.565 20.754
A0.303,0.303 0 0,1 230.411,20.666
L230.235 20.666
A0.246,0.246 0 0,0 230.411,20.798
A13.272,13.272 0 0,0 231.664,20.798
A0.305,0.305 0 0,0 231.862,20.469
L231.862 19.567
L231.752 19.567
L231.752 20.512
A0.219,0.219 0 0,1 231.532,20.732
A0.200,0.200 0 0,0 231.664,20.512
L231.664 19.567
L231.664 19.897
L231.576 19.897
A0.447,0.447 0 0,0 231.510,19.743
A0.465,0.465 0 0,0 231.356,19.611
L231.268 19.567
L231.158 19.523
L230.477 19.523
A0.340,0.340 0 0,0 230.191,19.897
L230.191 20.007
A0.320,0.320 0 0,0 230.433,20.293
L231.158 20.293
A0.484,0.484 0 0,0 231.334,20.249
L231.224 20.249
L230.521 20.249
A0.336,0.336 0 0,1 230.565,19.589
L231.158 19.589
A0.288,0.288 0 0,1 231.312,19.633
L230.565 19.633
A0.307,0.307 0 0,0 230.565,20.205
L231.444 20.205
L231.312 20.183
L230.741 20.183
A0.253,0.253 0 0,1 230.741,19.677
L231.312 19.677
A0.253,0.253 0 0,1 231.312,20.183
L231.180 20.337
A12.221,12.221 0 0,1 230.411,20.337
A0.300,0.300 0 0,1 230.125,20.029
L230.125 19.809
A0.300,0.300 0 0,1 230.411,19.501
A12.221,12.221 0 0,1 231.180,19.501
A0.411,0.411 0 0,1 231.576,19.897
L231.576 19.501
L231.972 19.501
L231.972 20.512
A0.349,0.349 0 0,1 231.642,20.864
A12.574,12.574 0 0,1 230.455,20.864
A0.305,0.305 0 0,1 230.125,20.600
L230.521 20.600
A0.250,0.250 0 0,0 230.741,20.732
L231.356 20.732
A0.219,0.219 0 0,0 231.576,20.512
L231.576 19.941
A0.411,0.411 0 0,1 231.180,20.337
" 
fill="none" vector-effect="non-scaling-stroke" stroke="#000000" stroke-width="0.200mm" stroke-opacity="1.000000" fpd:visible="front" fpd:print_element="0" fpd:engraving_ral_9005="1" />
<path d="
M232.829 20.798
L232.829 19.545
L232.719 19.545
L232.719 20.798
L232.939 20.798
L232.939 19.545
L232.939 20.007
A2.099,2.099 0 0,0 233.093,20.578
A0.555,0.555 0 0,0 233.554,20.798
A4.892,4.892 0 0,0 234.170,20.798
A0.347,0.347 0 0,0 234.434,20.491
L234.434 19.567
L234.324 19.567
L234.324 20.491
A0.298,0.298 0 0,1 234.082,20.732
A3.032,3.032 0 0,1 233.510,20.732
A0.858,0.858 0 0,1 233.181,20.622
A1.013,1.013 0 0,0 233.554,20.688
A4.663,4.663 0 0,0 233.994,20.666
A0.251,0.251 0 0,0 234.214,20.425
L234.214 19.567
L234.126 19.501
L234.522 19.501
L234.522 20.512
A0.349,0.349 0 0,1 234.192,20.864
A7.451,7.451 0 0,1 233.488,20.864
A0.483,0.483 0 0,1 233.027,20.381
L233.027 20.864
L232.631 20.864
L232.631 19.501
L233.027 19.501
L233.027 20.337
A0.294,0.294 0 0,0 233.291,20.622
A2.601,2.601 0 0,0 233.862,20.622
A0.294,0.294 0 0,0 234.126,20.337
L234.126 19.501
" 
fill="none" vector-effect="non-scaling-stroke" stroke="#000000" stroke-width="0.200mm" stroke-opacity="1.000000" fpd:visible="front" fpd:print_element="0" fpd:engraving_ral_9005="1" />
<path d="
M237.006 21.436
L237.006 19.545
L237.094 19.545
L237.094 21.458
L236.918 21.458
L236.918 19.545
L236.918 20.205
A0.597,0.597 0 0,1 236.698,20.600
A1.346,1.346 0 0,1 236.324,20.666
A3.776,3.776 0 0,1 235.731,20.666
A0.311,0.311 0 0,1 235.489,20.425
A2.103,2.103 0 0,1 235.489,19.897
A0.289,0.289 0 0,1 235.709,19.699
A2.102,2.102 0 0,1 236.038,19.677
A3.284,3.284 0 0,1 236.654,19.743
A0.454,0.454 0 0,0 236.412,19.633
A3.303,3.303 0 0,0 235.687,19.611
A0.310,0.310 0 0,0 235.401,19.897
A2.015,2.015 0 0,0 235.401,20.403
A0.316,0.316 0 0,0 235.687,20.732
A4.056,4.056 0 0,0 236.324,20.732
A1.153,1.153 0 0,0 236.742,20.622
A0.833,0.833 0 0,1 236.368,20.798
A2.891,2.891 0 0,1 235.643,20.798
A0.361,0.361 0 0,1 235.291,20.425
A2.799,2.799 0 0,1 235.291,19.897
A0.430,0.430 0 0,1 235.621,19.545
A3.303,3.303 0 0,1 236.346,19.567
A0.489,0.489 0 0,1 236.698,19.721
A0.390,0.390 0 0,1 236.808,20.007
A0.272,0.272 0 0,0 236.566,19.765
A3.401,3.401 0 0,0 235.819,19.765
A0.276,0.276 0 0,0 235.577,20.007
A1.601,1.601 0 0,0 235.577,20.359
A0.276,0.276 0 0,0 235.819,20.600
A3.401,3.401 0 0,0 236.566,20.600
A0.272,0.272 0 0,0 236.808,20.359
A1.601,1.601 0 0,0 236.808,20.007
L236.830 19.985
A0.487,0.487 0 0,0 236.390,19.501
A3.417,3.417 0 0,0 235.533,19.501
A0.384,0.384 0 0,0 235.203,19.831
A2.804,2.804 0 0,0 235.203,20.534
A0.384,0.384 0 0,0 235.533,20.864
A3.329,3.329 0 0,0 236.368,20.864
A0.568,0.568 0 0,0 236.830,20.534
L236.830 21.524
L237.204 21.524
L237.204 19.501
L236.830 19.501
L236.830 19.985
" 
fill="none" vector-effect="non-scaling-stroke" stroke="#000000" stroke-width="0.200mm" stroke-opacity="1.000000" fpd:visible="front" fpd:print_element="0" fpd:engraving_ral_9005="1" />
<path d="
M238.039 21.435
L238.039 19.522
L237.951 19.522
L237.951 21.479
L238.149 21.479
L238.149 19.522
L238.149 20.204
A0.539,0.539 0 0,0 238.391,20.621
A2.468,2.468 0 0,0 239.314,20.665
A0.273,0.273 0 0,0 239.556,20.468
A2.105,2.105 0 0,0 239.556,19.874
A0.287,0.287 0 0,0 239.402,19.698
A1.639,1.639 0 0,0 238.940,19.676
A2.380,2.380 0 0,0 238.347,19.742
A0.984,0.984 0 0,1 238.698,19.632
A2.038,2.038 0 0,1 239.336,19.610
A0.316,0.316 0 0,1 239.666,19.896
A4.018,4.018 0 0,1 239.666,20.402
A0.287,0.287 0 0,1 239.490,20.687
A1.421,1.421 0 0,1 238.786,20.731
L238.435 20.687
A1.265,1.265 0 0,0 238.698,20.775
A1.794,1.794 0 0,0 239.534,20.753
A0.300,0.300 0 0,0 239.754,20.490
A4.195,4.195 0 0,0 239.754,19.830
A0.285,0.285 0 0,0 239.468,19.566
A3.503,3.503 0 0,0 238.698,19.544
A0.437,0.437 0 0,0 238.259,20.006
A0.272,0.272 0 0,1 238.501,19.764
A3.401,3.401 0 0,1 239.248,19.764
A0.276,0.276 0 0,1 239.490,20.006
A1.601,1.601 0 0,1 239.490,20.358
A0.276,0.276 0 0,1 239.248,20.599
A3.401,3.401 0 0,1 238.501,20.599
A0.272,0.272 0 0,1 238.259,20.358
A1.601,1.601 0 0,1 238.259,20.006
L238.237 19.984
A0.480,0.480 0 0,1 238.676,19.500
A3.417,3.417 0 0,1 239.534,19.500
A0.384,0.384 0 0,1 239.864,19.830
A2.804,2.804 0 0,1 239.864,20.533
A0.384,0.384 0 0,1 239.534,20.863
A3.329,3.329 0 0,1 238.698,20.863
A0.568,0.568 0 0,1 238.237,20.533
L238.237 21.523
L237.863 21.523
L237.863 19.500
L238.237 19.500
L238.237 19.984
" 
fill="none" vector-effect="non-scaling-stroke" stroke="#000000" stroke-width="0.200mm" stroke-opacity="1.000000" fpd:visible="front" fpd:print_element="0" fpd:engraving_ral_9005="1" />
<path d="
M240.809 20.753
L241.336 19.588
L241.424 19.588
L240.919 20.819
L240.655 20.819
L241.248 19.544
L241.578 19.544
L242.084 20.797
L242.216 20.797
L241.490 19.258
A0.471,0.471 0 0,0 241.073,18.972
L241.073 18.906
L241.205 18.906
A0.375,0.375 0 0,1 241.534,19.104
L242.326 20.819
L242.480 20.863
L241.622 19.082
A0.407,0.407 0 0,0 241.270,18.840
L241.007 18.840
L241.007 19.060
L241.095 19.060
A0.317,0.317 0 0,1 241.380,19.258
L241.468 19.500
L241.205 19.500
L240.545 20.863
L241.007 20.863
L241.512 19.588
L242.018 20.863
L242.480 20.863
" 
fill="none" vector-effect="non-scaling-stroke" stroke="#000000" stroke-width="0.200mm" stroke-opacity="1.000000" fpd:visible="front" fpd:print_element="0" fpd:engraving_ral_9005="1" />
<path d="
M225.612 10.218
L225.612 9.361
L226.843 9.361
A0.350,0.350 0 0,1 227.195,9.712
L227.195 9.866
A0.350,0.350 0 0,1 226.843,10.218
L225.612 10.218
L225.502 10.306
L226.931 10.306
A0.382,0.382 0 0,0 227.305,9.866
L227.305 9.734
A0.407,0.407 0 0,0 226.887,9.273
L225.502 9.273
L225.502 10.306
L225.392 10.394
L227.063 10.394
A0.407,0.407 0 0,0 227.415,9.998
L227.415 9.624
A0.384,0.384 0 0,0 227.041,9.207
L225.392 9.207
L225.392 10.394
L225.282 10.460
L227.173 10.460
A0.388,0.388 0 0,0 227.525,10.064
L227.525 9.514
A0.380,0.380 0 0,0 227.107,9.141
L225.502 9.141
L225.502 8.569
L225.392 8.569
L225.392 9.141
L225.392 8.569
L225.282 8.569
L225.282 10.460
L225.172 10.526
L225.172 8.503
L225.612 8.503
L225.612 9.053
L227.239 9.053
A0.394,0.394 0 0,1 227.635,9.449
L227.635 10.130
A0.394,0.394 0 0,1 227.239,10.526
L225.172 10.526
" 
fill="none" vector-effect="non-scaling-stroke" stroke="#000000" stroke-width="0.200mm" stroke-opacity="1.000000" fpd:visible="front" fpd:print_element="0" fpd:engraving_ral_9005="1" />
<path d="
M228.580 9.339
A2.970,2.970 0 0,1 228.580,8.965
A0.332,0.332 0 0,1 228.932,8.701
A2.963,2.963 0 0,1 229.767,8.701
A0.332,0.332 0 0,1 230.031,9.053
A2.795,2.795 0 0,1 230.031,9.405
A0.278,0.278 0 0,1 229.833,9.646
A3.442,3.442 0 0,1 228.756,9.646
A0.303,0.303 0 0,1 228.580,9.339
L228.690 9.361
A1.601,1.601 0 0,1 228.690,9.009
A0.276,0.276 0 0,1 228.932,8.767
A3.401,3.401 0 0,1 229.679,8.767
A0.276,0.276 0 0,1 229.921,9.009
A1.601,1.601 0 0,1 229.921,9.361
A0.276,0.276 0 0,1 229.679,9.602
A3.401,3.401 0 0,1 228.932,9.602
A0.276,0.276 0 0,1 228.690,9.361
L228.492 9.383
A3.669,3.669 0 0,1 228.492,8.921
A0.356,0.356 0 0,1 228.866,8.635
A3.092,3.092 0 0,1 229.833,8.657
A0.283,0.283 0 0,1 230.119,8.899
A4.193,4.193 0 0,1 230.119,9.427
A0.329,0.329 0 0,1 229.767,9.734
A7.864,7.864 0 0,1 228.778,9.712
A0.283,0.283 0 0,1 228.492,9.383
L228.404 9.471
A4.717,4.717 0 0,1 228.404,8.877
A0.353,0.353 0 0,1 228.756,8.569
A4.907,4.907 0 0,1 229.987,8.591
A0.260,0.260 0 0,1 230.207,8.855
A5.591,5.591 0 0,1 230.207,9.558
A0.339,0.339 0 0,1 229.855,9.800
A9.085,9.085 0 0,1 228.712,9.800
A0.306,0.306 0 0,1 228.404,9.471
L228.316 9.558
A5.940,5.940 0 0,1 228.316,8.811
A0.329,0.329 0 0,1 228.624,8.503
A10.832,10.832 0 0,1 229.987,8.503
A0.329,0.329 0 0,1 230.295,8.811
A5.940,5.940 0 0,1 230.295,9.558
A0.329,0.329 0 0,1 229.987,9.866
A10.832,10.832 0 0,1 228.624,9.866
A0.329,0.329 0 0,1 228.316,9.558
" 
fill="none" vector-effect="non-scaling-stroke" stroke="#000000" stroke-width="0.200mm" stroke-opacity="1.000000" fpd:visible="front" fpd:print_element="0" fpd:engraving_ral_9005="1" />
<path d="
M231.086 9.800
L231.592 8.547
L232.075 8.547
L232.449 9.646
L232.559 9.646
L232.911 8.547
L233.395 8.547
L233.878 9.800
L233.768 9.800
L233.329 8.591
L232.999 8.591
L232.625 9.712
L232.361 9.712
L231.987 8.591
L231.657 8.591
L231.196 9.800
L231.284 9.800
L231.745 8.591
L231.899 8.591
L232.317 9.800
L232.669 9.800
L233.087 8.591
L233.263 8.591
L233.680 9.800
L233.615 9.866
L234.010 9.866
L233.461 8.503
L232.845 8.503
L232.493 9.558
L232.141 8.503
L231.526 8.503
L230.976 9.866
L231.372 9.866
L231.811 8.613
L232.251 9.866
L232.735 9.866
L233.175 8.613
L233.615 9.866
" 
fill="none" vector-effect="non-scaling-stroke" stroke="#000000" stroke-width="0.200mm" stroke-opacity="1.000000" fpd:visible="front" fpd:print_element="0" fpd:engraving_ral_9005="1" />
<path d="
M235.022 9.229
L236.209 9.229
L236.209 9.536
A0.295,0.295 0 0,1 236.011,9.734
A3.041,3.041 0 0,1 235.154,9.734
A0.242,0.242 0 0,1 234.934,9.471
L234.934 9.229
L235.022 9.295
L236.121 9.295
L236.121 9.471
A0.199,0.199 0 0,1 235.967,9.668
A1.817,1.817 0 0,1 235.176,9.668
A0.218,0.218 0 0,1 235.022,9.493
L235.022 9.295
L234.934 9.185
L234.934 8.855
A0.230,0.230 0 0,1 235.176,8.635
A8.383,8.383 0 0,1 235.967,8.635
A0.320,0.320 0 0,1 236.209,8.789
L236.429 8.789
A0.326,0.326 0 0,0 236.165,8.547
A6.992,6.992 0 0,0 235.066,8.547
A0.317,0.317 0 0,0 234.758,8.877
L234.758 9.514
A0.310,0.310 0 0,0 235.066,9.822
A7.413,7.413 0 0,0 236.231,9.800
A0.310,0.310 0 0,0 236.429,9.514
L236.429 9.207
L236.319 9.207
L236.319 9.558
A0.261,0.261 0 0,1 236.099,9.778
A4.702,4.702 0 0,1 235.066,9.778
A0.295,0.295 0 0,1 234.846,9.471
L234.846 8.855
A0.278,0.278 0 0,1 235.110,8.591
A7.862,7.862 0 0,1 236.099,8.591
A0.282,0.282 0 0,1 236.319,8.789
L236.143 8.833
L236.517 8.833
L236.517 8.811
A0.324,0.324 0 0,0 236.209,8.503
A13.039,13.039 0 0,0 234.978,8.503
A0.324,0.324 0 0,0 234.670,8.811
A7.917,7.917 0 0,0 234.670,9.558
A0.324,0.324 0 0,0 234.978,9.866
A7.831,7.831 0 0,0 236.209,9.866
A0.324,0.324 0 0,0 236.517,9.558
L236.517 9.163
L235.022 9.163
L235.022 8.921
A0.239,0.239 0 0,1 235.242,8.701
A5.416,5.416 0 0,1 235.923,8.701
A0.278,0.278 0 0,1 236.143,8.833
" 
fill="none" vector-effect="non-scaling-stroke" stroke="#000000" stroke-width="0.200mm" stroke-opacity="1.000000" fpd:visible="front" fpd:print_element="0" fpd:engraving_ral_9005="1" />
<path d="
M237.374 9.821
L237.374 8.546
L237.264 8.546
L237.264 9.821
L237.484 9.821
L237.484 8.546
L237.484 9.008
L237.594 9.470
A0.287,0.287 0 0,0 237.792,9.667
A0.559,0.559 0 0,0 238.319,9.623
A0.378,0.378 0 0,0 238.473,9.382
L238.671 9.382
A0.379,0.379 0 0,1 238.649,9.579
A0.339,0.339 0 0,1 238.407,9.777
A2.116,2.116 0 0,1 238.077,9.821
A0.484,0.484 0 0,1 237.682,9.645
A0.913,0.913 0 0,0 237.945,9.755
A0.693,0.693 0 0,0 238.407,9.689
A0.363,0.363 0 0,0 238.561,9.382
L238.759 9.338
L238.759 9.514
A0.349,0.349 0 0,1 238.429,9.865
A4.191,4.191 0 0,1 238.033,9.865
A0.488,0.488 0 0,1 237.572,9.360
L237.572 9.865
L237.176 9.865
L237.176 8.502
L237.572 8.502
L237.572 9.338
A0.294,0.294 0 0,0 237.836,9.623
A1.200,1.200 0 0,0 238.099,9.623
A0.294,0.294 0 0,0 238.363,9.338
L238.759 9.338
" 
fill="none" vector-effect="non-scaling-stroke" stroke="#000000" stroke-width="0.200mm" stroke-opacity="1.000000" fpd:visible="front" fpd:print_element="0" fpd:engraving_ral_9005="1" />
<path d="
M175.937 5.293
A0.379,0.379 0 0,0 176.332,5.589
L177.861 5.589
A0.377,0.377 0 0,0 178.207,5.170
L178.207 4.874
A0.341,0.341 0 0,0 177.911,4.553
L176.134 4.405
A0.347,0.347 0 0,1 175.937,4.059
L175.937 3.640
L178.306 3.640
L178.306 3.739
L176.036 3.739
L176.036 4.035
A0.351,0.351 0 0,0 176.282,4.331
L178.059 4.479
A0.368,0.368 0 0,1 178.330,4.824
L178.330 5.293
A0.397,0.397 0 0,1 178.034,5.663
A7.570,7.570 0 0,1 176.134,5.663
A0.385,0.385 0 0,1 175.813,5.219
L176.060 5.219
A0.317,0.317 0 0,0 176.455,5.491
L177.763 5.491
A0.320,0.320 0 0,0 178.083,5.120
L178.083 4.997
A0.329,0.329 0 0,0 177.787,4.627
L176.085 4.479
A0.337,0.337 0 0,1 175.813,4.134
L175.813 3.566
L178.355 3.566
L178.454 3.492
L178.454 3.837
L176.134 3.837
A0.332,0.332 0 0,0 176.430,4.257
L178.083 4.380
A0.404,0.404 0 0,1 178.454,4.800
L178.454 5.318
A0.442,0.442 0 0,1 178.059,5.762
A12.554,12.554 0 0,1 176.085,5.762
A0.442,0.442 0 0,1 175.690,5.318
L175.690 5.145
L176.184 5.145
A0.283,0.283 0 0,0 176.480,5.417
L177.664 5.417
A0.295,0.295 0 0,0 177.960,5.120
L177.960 4.997
A0.330,0.330 0 0,0 177.664,4.676
L176.085 4.553
A0.424,0.424 0 0,1 175.690,4.109
L175.690 3.492
L178.454 3.492
" 
fill="none" vector-effect="non-scaling-stroke" stroke="#000000" stroke-width="0.200mm" stroke-opacity="1.000000" fpd:visible="front" fpd:print_element="0" fpd:engraving_ral_9005="1" />
<path d="
M179.637 5.663
L180.624 3.739
L180.970 3.739
L181.957 5.688
L182.105 5.688
L181.068 3.640
L180.501 3.640
L179.489 5.688
L179.316 5.688
L180.402 3.566
L181.167 3.566
L182.253 5.663
L182.475 5.762
L181.290 3.492
L180.303 3.492
L179.119 5.762
L179.736 5.762
L180.698 3.837
L180.896 3.837
L181.858 5.762
L182.475 5.762
" 
fill="none" vector-effect="non-scaling-stroke" stroke="#000000" stroke-width="0.200mm" stroke-opacity="1.000000" fpd:visible="front" fpd:print_element="0" fpd:engraving_ral_9005="1" />
<path d="
M183.165 4.626
L184.472 4.626
L184.522 4.725
L183.140 4.725
L183.140 4.527
L184.522 4.527
L184.522 4.725
" 
fill="none" vector-effect="non-scaling-stroke" stroke="#000000" stroke-width="0.200mm" stroke-opacity="1.000000" fpd:visible="front" fpd:print_element="0" fpd:engraving_ral_9005="1" />
<path d="
M185.508 5.292
A0.379,0.379 0 0,0 185.903,5.588
L187.432 5.588
A0.377,0.377 0 0,0 187.778,5.169
L187.778 4.873
A0.341,0.341 0 0,0 187.482,4.552
L185.705 4.404
A0.347,0.347 0 0,1 185.508,4.058
L185.508 3.639
L187.877 3.639
L187.877 3.738
L185.607 3.738
L185.607 4.034
A0.351,0.351 0 0,0 185.853,4.330
L187.630 4.478
A0.368,0.368 0 0,1 187.901,4.823
L187.901 5.292
A0.397,0.397 0 0,1 187.605,5.662
A7.570,7.570 0 0,1 185.705,5.662
A0.385,0.385 0 0,1 185.384,5.218
L185.631 5.218
A0.317,0.317 0 0,0 186.026,5.490
L187.334 5.490
A0.320,0.320 0 0,0 187.654,5.119
L187.654 4.996
A0.329,0.329 0 0,0 187.358,4.626
L185.656 4.478
A0.337,0.337 0 0,1 185.384,4.133
L185.384 3.565
L187.926 3.565
L188.025 3.491
L188.025 3.836
L185.705 3.836
A0.332,0.332 0 0,0 186.001,4.256
L187.654 4.379
A0.404,0.404 0 0,1 188.025,4.799
L188.025 5.317
A0.442,0.442 0 0,1 187.630,5.761
A12.554,12.554 0 0,1 185.656,5.761
A0.442,0.442 0 0,1 185.261,5.317
L185.261 5.144
L185.755 5.144
A0.283,0.283 0 0,0 186.051,5.416
L187.235 5.416
A0.295,0.295 0 0,0 187.531,5.119
L187.531 4.996
A0.330,0.330 0 0,0 187.235,4.675
L185.656 4.552
A0.424,0.424 0 0,1 185.261,4.108
L185.261 3.491
L188.025 3.491
" 
fill="none" vector-effect="non-scaling-stroke" stroke="#000000" stroke-width="0.200mm" stroke-opacity="1.000000" fpd:visible="front" fpd:print_element="0" fpd:engraving_ral_9005="1" />
<path d="
M189.011 3.984
A0.379,0.379 0 0,1 189.406,3.664
A13.848,13.848 0 0,1 190.713,3.664
A0.363,0.363 0 0,1 191.034,4.058
L191.034 4.355
A0.326,0.326 0 0,1 190.664,4.725
L189.480 4.725
A0.604,0.604 0 0,1 189.258,4.552
L189.011 4.552
L189.011 5.588
L188.887 5.638
L188.887 4.527
L189.159 4.527
L189.258 4.527
A0.583,0.583 0 0,0 189.480,4.651
L190.541 4.651
A0.354,0.354 0 0,0 190.935,4.256
L190.935 4.157
A0.406,0.406 0 0,0 190.615,3.738
L189.578 3.738
A0.418,0.418 0 0,0 189.134,3.984
L188.887 3.984
A0.388,0.388 0 0,1 189.282,3.590
A9.572,9.572 0 0,1 190.787,3.590
A0.383,0.383 0 0,1 191.157,4.009
L191.157 4.478
A0.369,0.369 0 0,1 190.812,4.823
L189.776 4.823
A0.578,0.578 0 0,1 189.332,4.626
L189.233 4.503
L189.134 4.503
L189.134 5.539
L191.083 5.539
L191.083 5.638
L188.887 5.638
L188.764 5.761
L188.764 4.478
L189.233 4.478
A0.244,0.244 0 0,0 189.406,4.577
L190.491 4.577
A0.319,0.319 0 0,0 190.812,4.256
L190.812 4.157
A0.319,0.319 0 0,0 190.491,3.836
L189.578 3.836
A0.340,0.340 0 0,0 189.258,4.059
L188.764 4.059
L188.764 3.935
A0.442,0.442 0 0,1 189.184,3.491
A17.767,17.767 0 0,1 190.861,3.491
A0.442,0.442 0 0,1 191.281,3.935
L191.281 4.478
A0.442,0.442 0 0,1 190.837,4.922
L189.776 4.922
A0.567,0.567 0 0,1 189.258,4.577
L189.258 5.416
L191.207 5.416
L191.207 5.761
L188.764 5.761
" 
fill="none" vector-effect="non-scaling-stroke" stroke="#000000" stroke-width="0.200mm" stroke-opacity="1.000000" fpd:visible="front" fpd:print_element="0" fpd:engraving_ral_9005="1" />
<path d="
M192.464 5.662
L193.451 3.738
L193.797 3.738
L194.784 5.687
L194.932 5.687
L193.895 3.639
L193.328 3.639
L192.316 5.687
L192.143 5.687
L193.229 3.565
L193.994 3.565
L195.080 5.662
L195.302 5.761
L194.117 3.491
L193.130 3.491
L191.946 5.761
L192.563 5.761
L193.525 3.836
L193.723 3.836
L194.685 5.761
L195.302 5.761
" 
fill="none" vector-effect="non-scaling-stroke" stroke="#000000" stroke-width="0.200mm" stroke-opacity="1.000000" fpd:visible="front" fpd:print_element="0" fpd:engraving_ral_9005="1" />
<path d="
M195.957 36.756
A0.301,0.301 0 0,1 195.649,37.007
A11.850,11.850 0 0,1 194.530,37.007
A0.290,0.290 0 0,1 194.240,36.698
A4.540,4.540 0 0,1 194.240,35.984
A0.350,0.350 0 0,1 194.568,35.637
A11.441,11.441 0 0,1 195.649,35.637
A0.284,0.284 0 0,1 195.919,35.830
L195.977 35.984
L196.073 35.984
L196.034 35.849
A0.430,0.430 0 0,0 195.764,35.560
L194.394 35.579
A0.353,0.353 0 0,0 194.144,35.907
L194.144 36.756
A0.358,0.358 0 0,0 194.414,37.065
A13.280,13.280 0 0,0 195.668,37.065
A0.345,0.345 0 0,0 196.054,36.795
L196.054 36.756
L196.150 36.756
L196.150 36.852
A0.395,0.395 0 0,1 195.764,37.123
A14.710,14.710 0 0,1 194.375,37.123
A0.336,0.336 0 0,1 194.086,36.795
A4.389,4.389 0 0,1 194.086,35.830
A0.294,0.294 0 0,1 194.337,35.540
A11.958,11.958 0 0,1 195.841,35.521
A0.421,0.421 0 0,1 196.150,35.984
L196.208 35.984
L196.208 35.772
A0.457,0.457 0 0,0 195.919,35.483
A10.675,10.675 0 0,0 194.240,35.483
A0.319,0.319 0 0,0 194.009,35.811
A6.626,6.626 0 0,0 194.009,36.852
A0.377,0.377 0 0,0 194.240,37.161
A13.184,13.184 0 0,0 195.899,37.180
A0.377,0.377 0 0,0 196.227,36.756
L196.285 36.698
L196.285 36.872
A0.346,0.346 0 0,1 195.977,37.219
A13.796,13.796 0 0,1 194.240,37.219
A0.346,0.346 0 0,1 193.931,36.872
L193.931 35.791
A0.346,0.346 0 0,1 194.240,35.444
A13.796,13.796 0 0,1 195.977,35.444
A0.346,0.346 0 0,1 196.285,35.791
L196.285 36.061
L195.899 36.061
L195.899 36.042
A0.315,0.315 0 0,0 195.610,35.733
A5.321,5.321 0 0,0 194.607,35.733
A0.315,0.315 0 0,0 194.317,36.042
L194.317 36.621
A0.315,0.315 0 0,0 194.607,36.930
A5.321,5.321 0 0,0 195.610,36.930
A0.276,0.276 0 0,0 195.899,36.698
L196.285 36.698
" 
fill="none" vector-effect="non-scaling-stroke" stroke="#000000" stroke-width="0.200mm" stroke-opacity="1.000000" fpd:visible="front" fpd:print_element="0" fpd:engraving_ral_9005="1" />
<path d="
M198.369 36.562
L198.369 35.501
L198.446 35.501
L198.446 36.581
L198.273 36.581
L198.273 35.501
L198.273 36.118
A3.031,3.031 0 0,0 198.099,35.675
A0.467,0.467 0 0,0 197.675,35.482
A4.495,4.495 0 0,0 197.250,35.482
A0.297,0.297 0 0,0 196.942,35.752
L196.942 36.601
L197.038 36.601
L197.038 35.790
A0.264,0.264 0 0,1 197.289,35.539
A2.282,2.282 0 0,1 197.790,35.539
A0.331,0.331 0 0,1 198.022,35.636
A0.991,0.991 0 0,0 197.655,35.578
A4.911,4.911 0 0,0 197.347,35.597
A0.234,0.234 0 0,0 197.135,35.829
L197.135 36.601
L197.212 36.639
L196.864 36.639
L196.864 35.752
A0.306,0.306 0 0,1 197.154,35.443
A6.538,6.538 0 0,1 197.771,35.443
A0.428,0.428 0 0,1 198.176,35.887
L198.176 35.443
L198.524 35.443
L198.524 36.639
L198.176 36.639
L198.176 35.906
A0.258,0.258 0 0,0 197.945,35.655
A2.282,2.282 0 0,0 197.443,35.655
A0.258,0.258 0 0,0 197.212,35.906
L197.212 36.639
" 
fill="none" vector-effect="non-scaling-stroke" stroke="#000000" stroke-width="0.200mm" stroke-opacity="1.000000" fpd:visible="front" fpd:print_element="0" fpd:engraving_ral_9005="1" />
<path d="
M199.277 36.601
L199.277 35.482
L199.181 35.482
L199.181 36.601
L199.374 36.601
L199.374 35.482
L199.374 35.887
L199.470 36.292
A0.252,0.252 0 0,0 199.644,36.466
A0.490,0.490 0 0,0 200.107,36.427
A0.332,0.332 0 0,0 200.242,36.215
L200.415 36.215
A0.332,0.332 0 0,1 200.396,36.388
A0.298,0.298 0 0,1 200.184,36.562
A1.857,1.857 0 0,1 199.894,36.601
A0.425,0.425 0 0,1 199.547,36.446
A0.801,0.801 0 0,0 199.779,36.543
A0.608,0.608 0 0,0 200.184,36.485
A0.319,0.319 0 0,0 200.319,36.215
L200.493 36.176
L200.493 36.331
A0.306,0.306 0 0,1 200.203,36.639
A3.677,3.677 0 0,1 199.856,36.639
A0.428,0.428 0 0,1 199.451,36.195
L199.451 36.639
L199.103 36.639
L199.103 35.443
L199.451 35.443
L199.451 36.176
A0.258,0.258 0 0,0 199.682,36.427
A1.053,1.053 0 0,0 199.914,36.427
A0.258,0.258 0 0,0 200.145,36.176
L200.493 36.176
" 
fill="none" vector-effect="non-scaling-stroke" stroke="#000000" stroke-width="0.200mm" stroke-opacity="1.000000" fpd:visible="front" fpd:print_element="0" fpd:engraving_ral_9005="1" />
<path d="
M201.245 36.600
L201.245 35.481
L201.149 35.481
L201.149 36.600
L201.342 36.600
L201.342 35.481
L201.342 35.886
L201.438 36.291
A0.252,0.252 0 0,0 201.612,36.465
A0.490,0.490 0 0,0 202.075,36.426
A0.332,0.332 0 0,0 202.210,36.214
L202.383 36.214
A0.332,0.332 0 0,1 202.364,36.387
A0.298,0.298 0 0,1 202.152,36.561
A1.857,1.857 0 0,1 201.862,36.600
A0.425,0.425 0 0,1 201.515,36.445
A0.801,0.801 0 0,0 201.747,36.542
A0.608,0.608 0 0,0 202.152,36.484
A0.319,0.319 0 0,0 202.287,36.214
L202.461 36.175
L202.461 36.330
A0.306,0.306 0 0,1 202.171,36.638
A3.677,3.677 0 0,1 201.824,36.638
A0.428,0.428 0 0,1 201.419,36.194
L201.419 36.638
L201.071 36.638
L201.071 35.442
L201.419 35.442
L201.419 36.175
A0.258,0.258 0 0,0 201.650,36.426
A1.053,1.053 0 0,0 201.882,36.426
A0.258,0.258 0 0,0 202.113,36.175
L202.461 36.175
" 
fill="none" vector-effect="non-scaling-stroke" stroke="#000000" stroke-width="0.200mm" stroke-opacity="1.000000" fpd:visible="front" fpd:print_element="0" fpd:engraving_ral_9005="1" />
<path d="
M203.347 36.078
L204.389 36.078
L204.389 36.348
A0.259,0.259 0 0,1 204.215,36.521
A2.668,2.668 0 0,1 203.463,36.521
A0.212,0.212 0 0,1 203.270,36.290
L203.270 36.078
L203.347 36.136
L204.312 36.136
L204.312 36.290
A0.175,0.175 0 0,1 204.177,36.464
A1.594,1.594 0 0,1 203.482,36.464
A0.191,0.191 0 0,1 203.347,36.309
L203.347 36.136
L203.270 36.039
L203.270 35.750
A0.202,0.202 0 0,1 203.482,35.557
A7.355,7.355 0 0,1 204.177,35.557
A0.281,0.281 0 0,1 204.389,35.692
L204.582 35.692
A0.286,0.286 0 0,0 204.350,35.480
A6.135,6.135 0 0,0 203.386,35.480
A0.278,0.278 0 0,0 203.116,35.769
L203.116 36.328
A0.272,0.272 0 0,0 203.386,36.599
A6.504,6.504 0 0,0 204.408,36.579
A0.272,0.272 0 0,0 204.582,36.328
L204.582 36.058
L204.485 36.058
L204.485 36.367
A0.229,0.229 0 0,1 204.292,36.560
A4.125,4.125 0 0,1 203.386,36.560
A0.259,0.259 0 0,1 203.193,36.290
L203.193 35.750
A0.244,0.244 0 0,1 203.424,35.518
A6.898,6.898 0 0,1 204.292,35.518
A0.247,0.247 0 0,1 204.485,35.692
L204.331 35.730
L204.659 35.730
L204.659 35.711
A0.284,0.284 0 0,0 204.389,35.441
A11.441,11.441 0 0,0 203.309,35.441
A0.284,0.284 0 0,0 203.038,35.711
A6.946,6.946 0 0,0 203.038,36.367
A0.284,0.284 0 0,0 203.309,36.637
A6.871,6.871 0 0,0 204.389,36.637
A0.284,0.284 0 0,0 204.659,36.367
L204.659 36.020
L203.347 36.020
L203.347 35.808
A0.210,0.210 0 0,1 203.540,35.615
A4.752,4.752 0 0,1 204.138,35.615
A0.244,0.244 0 0,1 204.331,35.730
" 
fill="none" vector-effect="non-scaling-stroke" stroke="#000000" stroke-width="0.200mm" stroke-opacity="1.000000" fpd:visible="front" fpd:print_element="0" fpd:engraving_ral_9005="1" />
<path d="
M205.411 36.579
L205.411 35.480
L205.315 35.480
L205.315 36.579
L205.508 36.579
L205.508 35.480
L205.508 35.885
A1.842,1.842 0 0,0 205.643,36.386
A0.487,0.487 0 0,0 206.048,36.579
A4.292,4.292 0 0,0 206.588,36.579
A0.304,0.304 0 0,0 206.819,36.309
L206.819 35.499
L206.723 35.499
L206.723 36.309
A0.262,0.262 0 0,1 206.511,36.521
A2.660,2.660 0 0,1 206.009,36.521
A0.753,0.753 0 0,1 205.720,36.425
A0.889,0.889 0 0,0 206.048,36.483
A4.091,4.091 0 0,0 206.434,36.464
A0.220,0.220 0 0,0 206.627,36.251
L206.627 35.499
L206.549 35.441
L206.897 35.441
L206.897 36.328
A0.306,0.306 0 0,1 206.607,36.637
A6.538,6.538 0 0,1 205.990,36.637
A0.424,0.424 0 0,1 205.585,36.213
L205.585 36.637
L205.237 36.637
L205.237 35.441
L205.585 35.441
L205.585 36.174
A0.258,0.258 0 0,0 205.816,36.425
A2.282,2.282 0 0,0 206.318,36.425
A0.258,0.258 0 0,0 206.549,36.174
L206.549 35.441
" 
fill="none" vector-effect="non-scaling-stroke" stroke="#000000" stroke-width="0.200mm" stroke-opacity="1.000000" fpd:visible="front" fpd:print_element="0" fpd:engraving_ral_9005="1" />
<path d="
M207.900 36.888
L207.900 35.827
A0.238,0.238 0 0,1 208.054,35.576
A1.064,1.064 0 0,1 208.614,35.576
A0.306,0.306 0 0,1 208.787,35.846
L208.884 35.846
A0.341,0.341 0 0,0 208.575,35.499
A2.865,2.865 0 0,0 208.035,35.499
A0.278,0.278 0 0,0 207.803,35.769
L207.803 36.888
L207.977 36.888
L207.977 36.502
L207.533 36.502
L207.533 36.579
L208.787 36.579
L208.787 36.502
L207.977 36.502
L207.977 35.846
A0.235,0.235 0 0,1 208.170,35.615
A0.788,0.788 0 0,1 208.537,35.634
A0.263,0.263 0 0,1 208.691,35.846
L208.594 35.904
L208.942 35.904
L208.942 35.750
A0.310,0.310 0 0,0 208.652,35.441
A6.946,6.946 0 0,0 207.996,35.441
A0.306,0.306 0 0,0 207.707,35.750
L207.707 36.444
L207.475 36.444
L207.475 36.637
L207.707 36.637
L207.707 36.946
L208.054 36.946
L208.054 36.637
L208.865 36.637
L208.865 36.444
L208.054 36.444
L208.054 35.904
A0.228,0.228 0 0,1 208.247,35.673
A0.615,0.615 0 0,1 208.401,35.673
A0.228,0.228 0 0,1 208.594,35.904
" 
fill="none" vector-effect="non-scaling-stroke" stroke="#000000" stroke-width="0.200mm" stroke-opacity="1.000000" fpd:visible="front" fpd:print_element="0" fpd:engraving_ral_9005="1" />
<path d="
M197.114 33.698
L197.114 32.135
L198.600 32.135
L198.600 32.232
L197.211 32.232
L197.211 33.756
L197.018 33.756
L197.018 32.116
L196.921 32.058
L198.696 32.058
L198.696 32.328
L197.307 32.328
L197.307 33.833
L196.921 33.833
L196.921 32.058
" 
fill="none" vector-effect="non-scaling-stroke" stroke="#000000" stroke-width="0.200mm" stroke-opacity="1.000000" fpd:visible="front" fpd:print_element="0" fpd:engraving_ral_9005="1" />
<path d="
M199.372 33.659
L199.546 33.659
L199.546 33.756
L199.372 33.756
L199.372 33.659
L199.275 33.601
L199.623 33.601
L199.623 33.833
L199.275 33.833
L199.275 33.601
" 
fill="none" vector-effect="non-scaling-stroke" stroke="#000000" stroke-width="0.200mm" stroke-opacity="1.000000" fpd:visible="front" fpd:print_element="0" fpd:engraving_ral_9005="1" />
<path d="
M199.449 33.158
L199.449 32.097
L199.353 32.097
L199.353 33.216
L199.546 33.216
L199.546 32.097
L199.623 32.058
L199.275 32.058
L199.275 33.254
L199.623 33.254
L199.623 32.058
" 
fill="none" vector-effect="non-scaling-stroke" stroke="#000000" stroke-width="0.200mm" stroke-opacity="1.000000" fpd:visible="front" fpd:print_element="0" fpd:engraving_ral_9005="1" />
<path d="
M200.376 33.177
L200.376 32.097
L200.280 32.097
L200.280 33.196
L200.473 33.196
L200.473 32.097
L200.473 32.579
A1.775,1.775 0 0,0 200.608,33.003
A0.351,0.351 0 0,0 200.858,33.177
A1.443,1.443 0 0,0 201.399,33.196
A0.498,0.498 0 0,0 201.707,32.675
A1.413,1.413 0 0,0 201.842,33.003
A0.444,0.444 0 0,0 202.190,33.196
A2.560,2.560 0 0,0 202.672,33.177
A0.258,0.258 0 0,0 202.903,32.926
L202.903 32.097
L202.807 32.097
L202.807 32.888
A0.241,0.241 0 0,1 202.595,33.119
A1.845,1.845 0 0,1 202.132,33.119
A0.397,0.397 0 0,1 201.842,33.003
A0.873,0.873 0 0,0 202.576,33.042
A0.178,0.178 0 0,0 202.711,32.868
L202.711 32.097
L202.711 32.868
A0.178,0.178 0 0,1 202.576,33.042
A0.873,0.873 0 0,1 201.842,33.003
A1.413,1.413 0 0,1 201.707,32.675
L201.707 32.097
L201.611 32.097
L201.611 32.753
A0.402,0.402 0 0,1 201.360,33.138
A1.169,1.169 0 0,1 200.781,33.100
A0.213,0.213 0 0,1 200.646,33.023
A1.467,1.467 0 0,0 201.283,33.081
A0.306,0.306 0 0,0 201.514,32.772
L201.514 32.097
L201.418 32.058
L201.765 32.058
L201.765 32.791
A0.228,0.228 0 0,0 201.958,33.023
A1.922,1.922 0 0,0 202.440,33.023
A0.228,0.228 0 0,0 202.633,32.791
L202.633 32.058
L202.981 32.058
L202.981 32.946
A0.306,0.306 0 0,1 202.691,33.254
A5.720,5.720 0 0,1 202.151,33.254
A0.494,0.494 0 0,1 201.784,32.888
A0.519,0.519 0 0,1 201.437,33.254
A2.282,2.282 0 0,1 200.936,33.254
A0.433,0.433 0 0,1 200.550,32.868
L200.550 33.254
L200.202 33.254
L200.202 32.058
L200.550 32.058
L200.550 32.791
A0.228,0.228 0 0,0 200.743,33.023
A1.922,1.922 0 0,0 201.225,33.023
A0.228,0.228 0 0,0 201.418,32.791
L201.418 32.058
" 
fill="none" vector-effect="non-scaling-stroke" stroke="#000000" stroke-width="0.200mm" stroke-opacity="1.000000" fpd:visible="front" fpd:print_element="0" fpd:engraving_ral_9005="1" />
<path d="
M203.656 33.659
L203.830 33.659
L203.830 33.756
L203.656 33.756
L203.656 33.659
L203.559 33.601
L203.907 33.601
L203.907 33.833
L203.559 33.833
L203.559 33.601
" 
fill="none" vector-effect="non-scaling-stroke" stroke="#000000" stroke-width="0.200mm" stroke-opacity="1.000000" fpd:visible="front" fpd:print_element="0" fpd:engraving_ral_9005="1" />
<path d="
M203.733 33.158
L203.733 32.097
L203.637 32.097
L203.637 33.216
L203.830 33.216
L203.830 32.097
L203.907 32.058
L203.559 32.058
L203.559 33.254
L203.907 33.254
L203.907 32.058
" 
fill="none" vector-effect="non-scaling-stroke" stroke="#000000" stroke-width="0.200mm" stroke-opacity="1.000000" fpd:visible="front" fpd:print_element="0" fpd:engraving_ral_9005="1" />
<path d="
M204.910 33.505
L204.910 32.444
A0.238,0.238 0 0,1 205.064,32.193
A1.064,1.064 0 0,1 205.624,32.193
A0.306,0.306 0 0,1 205.797,32.463
L205.894 32.463
A0.341,0.341 0 0,0 205.585,32.116
A2.865,2.865 0 0,0 205.045,32.116
A0.278,0.278 0 0,0 204.813,32.386
L204.813 33.505
L204.987 33.505
L204.987 33.119
L204.543 33.119
L204.543 33.196
L205.797 33.196
L205.797 33.119
L204.987 33.119
L204.987 32.463
A0.235,0.235 0 0,1 205.180,32.232
A0.788,0.788 0 0,1 205.547,32.251
A0.263,0.263 0 0,1 205.701,32.463
L205.604 32.521
L205.952 32.521
L205.952 32.367
A0.310,0.310 0 0,0 205.662,32.058
A6.946,6.946 0 0,0 205.006,32.058
A0.306,0.306 0 0,0 204.717,32.367
L204.717 33.061
L204.485 33.061
L204.485 33.254
L204.717 33.254
L204.717 33.563
L205.064 33.563
L205.064 33.254
L205.875 33.254
L205.875 33.061
L205.064 33.061
L205.064 32.521
A0.228,0.228 0 0,1 205.257,32.290
A0.615,0.615 0 0,1 205.411,32.290
A0.228,0.228 0 0,1 205.604,32.521
" 
fill="none" vector-effect="non-scaling-stroke" stroke="#000000" stroke-width="0.200mm" stroke-opacity="1.000000" fpd:visible="front" fpd:print_element="0" fpd:engraving_ral_9005="1" />
<path d="
M150.713 4.627
L152.020 4.627
L152.070 4.726
L150.688 4.726
L150.688 4.528
L152.070 4.528
L152.070 4.726
" 
fill="none" vector-effect="non-scaling-stroke" stroke="#000000" stroke-width="0.200mm" stroke-opacity="1.000000" fpd:visible="front" fpd:print_element="0" fpd:engraving_ral_9005="1" />
<path d="
M154.265 5.540
L154.265 3.566
L154.339 3.566
L154.339 5.639
L153.574 5.639
L152.982 5.096
L153.056 4.997
L153.599 5.515
L154.166 5.515
L154.166 3.566
L154.067 3.566
L154.067 5.417
L153.969 5.417
L153.648 5.417
L153.031 4.849
L152.809 5.096
L153.525 5.762
L154.462 5.762
L154.462 3.492
L153.969 3.492
L153.969 5.417
" 
fill="none" vector-effect="non-scaling-stroke" stroke="#000000" stroke-width="0.200mm" stroke-opacity="1.000000" fpd:visible="front" fpd:print_element="0" fpd:engraving_ral_9005="1" />
<path d="
M155.424 5.293
A0.379,0.379 0 0,0 155.819,5.589
L157.348 5.589
A0.377,0.377 0 0,0 157.694,5.170
L157.694 4.874
A0.341,0.341 0 0,0 157.398,4.553
L155.621 4.405
A0.347,0.347 0 0,1 155.424,4.059
L155.424 3.640
L157.793 3.640
L157.793 3.739
L155.523 3.739
L155.523 4.035
A0.351,0.351 0 0,0 155.769,4.331
L157.546 4.479
A0.368,0.368 0 0,1 157.817,4.824
L157.817 5.293
A0.397,0.397 0 0,1 157.521,5.663
A7.570,7.570 0 0,1 155.621,5.663
A0.385,0.385 0 0,1 155.300,5.219
L155.547 5.219
A0.317,0.317 0 0,0 155.942,5.491
L157.250 5.491
A0.320,0.320 0 0,0 157.570,5.120
L157.570 4.997
A0.329,0.329 0 0,0 157.274,4.627
L155.572 4.479
A0.337,0.337 0 0,1 155.300,4.134
L155.300 3.566
L157.842 3.566
L157.941 3.492
L157.941 3.837
L155.621 3.837
A0.332,0.332 0 0,0 155.917,4.257
L157.570 4.380
A0.404,0.404 0 0,1 157.941,4.800
L157.941 5.318
A0.442,0.442 0 0,1 157.546,5.762
A12.554,12.554 0 0,1 155.572,5.762
A0.442,0.442 0 0,1 155.177,5.318
L155.177 5.145
L155.671 5.145
A0.283,0.283 0 0,0 155.967,5.417
L157.151 5.417
A0.295,0.295 0 0,0 157.447,5.120
L157.447 4.997
A0.330,0.330 0 0,0 157.151,4.676
L155.572 4.553
A0.424,0.424 0 0,1 155.177,4.109
L155.177 3.492
L157.941 3.492
" 
fill="none" vector-effect="non-scaling-stroke" stroke="#000000" stroke-width="0.200mm" stroke-opacity="1.000000" fpd:visible="front" fpd:print_element="0" fpd:engraving_ral_9005="1" />
<path d="
M159.124 5.663
L160.111 3.739
L160.457 3.739
L161.444 5.688
L161.592 5.688
L160.555 3.640
L159.988 3.640
L158.976 5.688
L158.803 5.688
L159.889 3.566
L160.654 3.566
L161.740 5.663
L161.962 5.762
L160.777 3.492
L159.790 3.492
L158.606 5.762
L159.223 5.762
L160.185 3.837
L160.383 3.837
L161.345 5.762
L161.962 5.762
" 
fill="none" vector-effect="non-scaling-stroke" stroke="#000000" stroke-width="0.200mm" stroke-opacity="1.000000" fpd:visible="front" fpd:print_element="0" fpd:engraving_ral_9005="1" />
<path d="
M146.304 39.489
L146.302 4.007
" 
fill="none" vector-effect="non-scaling-stroke" stroke="#000000" stroke-width="0.400mm" stroke-opacity="1.000000" fpd:visible="front" fpd:print_element="0" fpd:engraving_ral_9005="1" />
<path d="
M167.118 39.307
L167.116 3.825
" 
fill="none" vector-effect="non-scaling-stroke" stroke="#000000" stroke-width="0.400mm" stroke-opacity="1.000000" fpd:visible="front" fpd:print_element="0" fpd:engraving_ral_9005="1" />
<path d="
M149.735 22.539
A0.296,0.296 0 0,0 150.044,22.771
L151.240 22.771
A0.295,0.295 0 0,0 151.510,22.443
L151.510 22.211
A0.267,0.267 0 0,0 151.279,21.961
L149.890 21.845
A0.271,0.271 0 0,1 149.735,21.575
L149.735 21.247
L151.588 21.247
L151.588 21.324
L149.813 21.324
L149.813 21.555
A0.274,0.274 0 0,0 150.005,21.787
L151.395 21.903
A0.288,0.288 0 0,1 151.607,22.173
L151.607 22.539
A0.311,0.311 0 0,1 151.375,22.829
A5.919,5.919 0 0,1 149.890,22.829
A0.301,0.301 0 0,1 149.639,22.482
L149.832 22.482
A0.248,0.248 0 0,0 150.141,22.694
L151.163 22.694
A0.251,0.251 0 0,0 151.414,22.404
L151.414 22.308
A0.257,0.257 0 0,0 151.182,22.018
L149.851 21.903
A0.264,0.264 0 0,1 149.639,21.633
L149.639 21.189
L151.626 21.189
L151.703 21.131
L151.703 21.401
L149.890 21.401
A0.260,0.260 0 0,0 150.121,21.729
L151.414 21.826
A0.316,0.316 0 0,1 151.703,22.154
L151.703 22.559
A0.346,0.346 0 0,1 151.395,22.906
A9.816,9.816 0 0,1 149.851,22.906
A0.346,0.346 0 0,1 149.542,22.559
L149.542 22.424
L149.928 22.424
A0.221,0.221 0 0,0 150.160,22.636
L151.086 22.636
A0.230,0.230 0 0,0 151.317,22.404
L151.317 22.308
A0.258,0.258 0 0,0 151.086,22.057
L149.851 21.961
A0.331,0.331 0 0,1 149.542,21.613
L149.542 21.131
L151.703 21.131
" 
fill="none" vector-effect="non-scaling-stroke" stroke="#000000" stroke-width="0.200mm" stroke-opacity="1.000000" fpd:visible="front" fpd:print_element="0" fpd:engraving_ral_9005="1" />
<path d="
M152.571 22.346
A5.672,5.672 0 0,1 152.571,21.633
A0.356,0.356 0 0,1 152.841,21.363
A5.833,5.833 0 0,1 153.941,21.382
A0.357,0.357 0 0,1 154.153,21.633
L154.153 22.385
A0.315,0.315 0 0,1 153.902,22.655
A3.092,3.092 0 0,1 152.744,22.617
A0.292,0.292 0 0,1 152.571,22.346
L152.667 22.269
L152.667 21.748
A0.310,0.310 0 0,1 152.957,21.440
A4.298,4.298 0 0,1 153.767,21.440
A0.310,0.310 0 0,1 154.056,21.748
L154.056 22.289
A0.310,0.310 0 0,1 153.767,22.597
A4.298,4.298 0 0,1 152.957,22.597
A0.331,0.331 0 0,1 152.667,22.269
L152.474 22.366
A8.379,8.379 0 0,1 152.494,21.575
A0.320,0.320 0 0,1 152.802,21.285
A6.242,6.242 0 0,1 153.979,21.285
A0.336,0.336 0 0,1 154.230,21.555
L154.249 22.462
A0.292,0.292 0 0,1 153.999,22.713
A4.191,4.191 0 0,1 152.687,22.713
A0.329,0.329 0 0,1 152.474,22.366
L152.378 22.462
A15.015,15.015 0 0,1 152.397,21.517
A0.327,0.327 0 0,1 152.609,21.227
A5.919,5.919 0 0,1 154.095,21.227
A0.311,0.311 0 0,1 154.327,21.517
A10.626,10.626 0 0,1 154.346,22.520
A0.331,0.331 0 0,1 154.114,22.790
A4.017,4.017 0 0,1 152.609,22.790
A0.324,0.324 0 0,1 152.378,22.462
L152.281 22.539
L152.281 21.498
A0.346,0.346 0 0,1 152.590,21.150
A8.186,8.186 0 0,1 154.134,21.150
A0.346,0.346 0 0,1 154.442,21.498
L154.442 22.539
A0.346,0.346 0 0,1 154.134,22.887
A8.186,8.186 0 0,1 152.590,22.887
A0.346,0.346 0 0,1 152.281,22.539
" 
fill="none" vector-effect="non-scaling-stroke" stroke="#000000" stroke-width="0.200mm" stroke-opacity="1.000000" fpd:visible="front" fpd:print_element="0" fpd:engraving_ral_9005="1" />
<path d="
M155.310 22.346
A5.672,5.672 0 0,1 155.310,21.633
A0.356,0.356 0 0,1 155.580,21.363
A5.833,5.833 0 0,1 156.680,21.382
A0.357,0.357 0 0,1 156.892,21.633
L156.892 22.385
A0.315,0.315 0 0,1 156.641,22.655
A3.092,3.092 0 0,1 155.483,22.617
A0.292,0.292 0 0,1 155.310,22.346
L155.406 22.269
L155.406 21.748
A0.310,0.310 0 0,1 155.696,21.440
A4.298,4.298 0 0,1 156.506,21.440
A0.310,0.310 0 0,1 156.795,21.748
L156.795 22.289
A0.310,0.310 0 0,1 156.506,22.597
A4.298,4.298 0 0,1 155.696,22.597
A0.331,0.331 0 0,1 155.406,22.269
L155.213 22.366
A8.379,8.379 0 0,1 155.233,21.575
A0.320,0.320 0 0,1 155.541,21.285
A6.242,6.242 0 0,1 156.718,21.285
A0.336,0.336 0 0,1 156.969,21.555
L156.988 22.462
A0.292,0.292 0 0,1 156.738,22.713
A4.191,4.191 0 0,1 155.426,22.713
A0.329,0.329 0 0,1 155.213,22.366
L155.117 22.462
A15.015,15.015 0 0,1 155.136,21.517
A0.327,0.327 0 0,1 155.348,21.227
A5.919,5.919 0 0,1 156.834,21.227
A0.311,0.311 0 0,1 157.066,21.517
A10.626,10.626 0 0,1 157.085,22.520
A0.331,0.331 0 0,1 156.853,22.790
A4.017,4.017 0 0,1 155.348,22.790
A0.324,0.324 0 0,1 155.117,22.462
L155.020 22.539
L155.020 21.498
A0.346,0.346 0 0,1 155.329,21.150
A8.186,8.186 0 0,1 156.873,21.150
A0.346,0.346 0 0,1 157.181,21.498
L157.181 22.539
A0.346,0.346 0 0,1 156.873,22.887
A8.186,8.186 0 0,1 155.329,22.887
A0.346,0.346 0 0,1 155.020,22.539
" 
fill="none" vector-effect="non-scaling-stroke" stroke="#000000" stroke-width="0.200mm" stroke-opacity="1.000000" fpd:visible="front" fpd:print_element="0" fpd:engraving_ral_9005="1" />
<path d="
M157.933 22.250
L157.933 21.170
L157.837 21.170
L157.837 22.269
L158.030 22.269
L158.030 21.170
L158.030 21.652
A1.775,1.775 0 0,0 158.165,22.076
A0.351,0.351 0 0,0 158.415,22.250
A1.443,1.443 0 0,0 158.956,22.269
A0.498,0.498 0 0,0 159.264,21.748
A1.413,1.413 0 0,0 159.399,22.076
A0.444,0.444 0 0,0 159.747,22.269
A2.560,2.560 0 0,0 160.229,22.250
A0.258,0.258 0 0,0 160.460,21.999
L160.460 21.170
L160.364 21.170
L160.364 21.961
A0.241,0.241 0 0,1 160.152,22.192
A1.845,1.845 0 0,1 159.689,22.192
A0.397,0.397 0 0,1 159.399,22.076
A0.873,0.873 0 0,0 160.132,22.115
A0.178,0.178 0 0,0 160.268,21.941
L160.268 21.170
L160.268 21.941
A0.178,0.178 0 0,1 160.132,22.115
A0.873,0.873 0 0,1 159.399,22.076
A1.413,1.413 0 0,1 159.264,21.748
L159.264 21.170
L159.168 21.170
L159.168 21.826
A0.402,0.402 0 0,1 158.917,22.211
A1.169,1.169 0 0,1 158.338,22.173
A0.213,0.213 0 0,1 158.203,22.096
A1.467,1.467 0 0,0 158.840,22.154
A0.306,0.306 0 0,0 159.071,21.845
L159.071 21.170
L158.975 21.131
L159.322 21.131
L159.322 21.864
A0.228,0.228 0 0,0 159.515,22.096
A1.922,1.922 0 0,0 159.997,22.096
A0.228,0.228 0 0,0 160.190,21.864
L160.190 21.131
L160.538 21.131
L160.538 22.018
A0.306,0.306 0 0,1 160.248,22.327
A5.720,5.720 0 0,1 159.708,22.327
A0.494,0.494 0 0,1 159.341,21.961
A0.519,0.519 0 0,1 158.994,22.327
A2.282,2.282 0 0,1 158.493,22.327
A0.433,0.433 0 0,1 158.107,21.941
L158.107 22.327
L157.759 22.327
L157.759 21.131
L158.107 21.131
L158.107 21.864
A0.228,0.228 0 0,0 158.300,22.096
A1.922,1.922 0 0,0 158.782,22.096
A0.228,0.228 0 0,0 158.975,21.864
L158.975 21.131
" 
fill="none" vector-effect="non-scaling-stroke" stroke="#000000" stroke-width="0.200mm" stroke-opacity="1.000000" fpd:visible="front" fpd:print_element="0" fpd:engraving_ral_9005="1" />
<path d="
M161.869 21.670
L162.351 22.635
L162.506 22.635
L162.988 21.670
L161.869 21.670
L161.753 21.670
L162.274 22.712
L162.563 22.712
L163.354 21.226
L163.470 21.226
L162.641 22.789
L162.216 22.789
L161.387 21.188
L161.522 21.207
L161.714 21.612
L163.104 21.612
L163.142 21.535
L161.734 21.535
L161.695 21.458
L163.162 21.458
L163.316 21.169
L163.605 21.169
L162.737 22.828
L162.120 22.828
L161.251 21.169
L161.116 21.130
L162.042 22.905
L162.814 22.905
L163.740 21.130
L163.258 21.130
L163.123 21.400
L161.734 21.400
L161.599 21.130
L161.116 21.130
" 
fill="none" vector-effect="non-scaling-stroke" stroke="#000000" stroke-width="0.200mm" stroke-opacity="1.000000" fpd:visible="front" fpd:print_element="0" fpd:engraving_ral_9005="1" />
<path d="
M210.618 39.307
L210.616 3.825
" 
fill="none" vector-effect="non-scaling-stroke" stroke="#000000" stroke-width="0.400mm" stroke-opacity="1.000000" fpd:visible="front" fpd:print_element="0" fpd:engraving_ral_9005="1" />
<path d="
M8.118 39.307
L8.116 3.825
" 
fill="none" vector-effect="non-scaling-stroke" stroke="#000000" stroke-width="0.400mm" stroke-opacity="1.000000" fpd:visible="front" fpd:print_element="0" fpd:engraving_ral_9005="1" />
<path d="
M246.000 76.000
A2.000,2.000 0 0,0 248.000,74.000
L248.000 2.000
A2.000,2.000 0 0,0 246.000,0.000
L2.000 0.000
A2.000,2.000 0 0,0 0.000,2.000
L0.000 74.000
A2.000,2.000 0 0,0 2.000,76.000
L246.000 76.000
" 
fill="none" vector-effect="non-scaling-stroke" stroke="#000000" stroke-width="0.100mm" stroke-opacity="1.000000" fpd:visible="front back" />
</g>
</svg>
